<svg width="40" height="40" viewBox="0 0 40 40" fill="none" xmlns="http://www.w3.org/2000/svg">
<g clip-path="url(#clip0)">
<path d="M20.0004 7.58601C21.7356 7.58601 23.1423 6.1793 23.1423 4.44404C23.1423 2.70877 21.7356 1.30206 20.0004 1.30206C18.2651 1.30206 16.8584 2.70877 16.8584 4.44404C16.8584 6.1793 18.2651 7.58601 20.0004 7.58601Z" fill="#5F96F0"/>
<path d="M23.3838 11.2119C23.0309 9.44274 21.359 8.22823 19.5457 8.4706C18.0455 8.66963 16.9008 9.80629 16.6187 11.2119C17.5651 10.5113 18.7363 10.0955 20.0012 10.0955C21.2662 10.0955 22.4355 10.5122 23.3838 11.2119Z" fill="#5F96F0"/>
<path d="M31.2168 26.007C30.4968 25.3728 29.3973 25.4436 28.7648 26.1645L26.288 28.9774C25.6538 29.6974 25.7246 30.7969 26.4455 31.4303C26.7754 31.7204 27.185 31.8637 27.5928 31.8637C28.0749 31.8637 28.5543 31.6629 28.8984 31.2728L31.3734 28.459C32.0085 27.7399 31.9377 26.6413 31.2168 26.007Z" fill="#5F96F0"/>
<path d="M28.8977 9.65148C28.2626 8.93144 27.1648 8.86068 26.4457 9.49491C25.7256 10.1291 25.654 11.2278 26.2882 11.9478L28.765 14.7616C29.1091 15.1517 29.5885 15.3516 30.0715 15.3516C30.4793 15.3516 30.888 15.2092 31.2188 14.9191C31.9388 14.2848 32.0105 13.1862 31.3754 12.4662L28.8977 9.65148Z" fill="#5F96F0"/>
<path d="M20.0164 20.8022C20.0111 20.8022 19.989 20.8022 19.9837 20.8022C18.8771 20.8022 17.8218 21.3038 17.0841 22.1309C16.3464 22.957 15.9952 24.0716 16.1199 25.172L17.9059 36.7138C18.0279 37.8009 18.9178 38.6988 20.0005 38.6988C21.085 38.6988 21.9722 37.808 22.0969 36.7191L23.8811 25.1702C24.0067 24.0707 23.6547 22.9553 22.9169 22.1291C22.1774 21.3047 21.1239 20.8022 20.0164 20.8022Z" fill="#5F96F0"/>
<path d="M19.9996 19.8213C22.1149 19.8213 23.8298 18.1065 23.8298 15.9911C23.8298 13.8758 22.1149 12.1609 19.9996 12.1609C17.8843 12.1609 16.1694 13.8758 16.1694 15.9911C16.1694 18.1065 17.8843 19.8213 19.9996 19.8213Z" fill="#5F96F0"/>
<path d="M36.4606 15.4878C36.4562 15.4878 36.4367 15.4878 36.4314 15.4878C35.423 15.4878 34.4624 15.9451 33.7919 16.697C33.1196 17.4489 32.8003 18.4644 32.9135 19.4666L34.5385 29.9734C34.6499 30.9641 35.4602 31.7806 36.4456 31.7806C37.4319 31.7806 38.2413 30.9694 38.3536 29.9796L39.9777 19.4648C40.0909 18.4635 39.7715 17.4489 39.1002 16.697C38.4288 15.9451 37.4681 15.4878 36.4606 15.4878Z" fill="#5F96F0"/>
<path d="M36.4454 14.5944C38.3712 14.5944 39.9324 13.0332 39.9324 11.1074C39.9324 9.18165 38.3712 7.62048 36.4454 7.62048C34.5197 7.62048 32.9585 9.18165 32.9585 11.1074C32.9585 13.0332 34.5197 14.5944 36.4454 14.5944Z" fill="#5F96F0"/>
<path d="M8.78353 26.007C9.50445 25.3728 10.6031 25.4436 11.2364 26.1645L13.7123 28.9774C14.3466 29.6974 14.2758 30.7969 13.5558 31.4303C13.2258 31.7204 12.8163 31.8637 12.4085 31.8637C11.9264 31.8637 11.447 31.6629 11.1029 31.2728L8.62785 28.459C7.99273 27.7399 8.06173 26.6413 8.78353 26.007Z" fill="#5F96F0"/>
<path d="M11.1013 9.65141C11.7364 8.93138 12.8342 8.86061 13.5542 9.49485C14.2743 10.1291 14.345 11.2277 13.7108 11.9477L11.2349 14.7615C10.8908 15.1516 10.4114 15.3515 9.92839 15.3515C9.52061 15.3515 9.11194 15.2091 8.78111 14.919C8.06108 14.2848 7.99031 13.1861 8.62455 12.4661L11.1013 9.65141Z" fill="#5F96F0"/>
<path d="M3.53895 15.4878C3.54337 15.4878 3.56372 15.4878 3.56903 15.4878C4.57655 15.4878 5.53718 15.9451 6.20857 16.697C6.88084 17.4489 7.20016 18.4644 7.08694 19.4666L5.46111 29.9734C5.34965 30.9641 4.53939 31.7806 3.55399 31.7806C2.5677 31.7806 1.75832 30.9694 1.64598 29.9796L0.0219236 19.4648C-0.0913006 18.4635 0.228027 17.4489 0.899411 16.697C1.5708 15.9451 2.53055 15.4878 3.53895 15.4878Z" fill="#5F96F0"/>
<path d="M3.55482 14.5944C5.48061 14.5944 7.04178 13.0332 7.04178 11.1074C7.04178 9.18165 5.48061 7.62048 3.55482 7.62048C1.62903 7.62048 0.0678711 9.18165 0.0678711 11.1074C0.0678711 13.0332 1.62903 14.5944 3.55482 14.5944Z" fill="#5F96F0"/>
</g>
<defs>
<clipPath id="clip0">
<rect width="40" height="40" fill="white"/>
</clipPath>
</defs>
</svg>
