<svg width="37" height="37" viewBox="0 0 37 37" fill="none" xmlns="http://www.w3.org/2000/svg">
<path d="M6.28478 25.7513L10.0205 20.0232H8.51559V16.5515L11.2672 11.4717H10.7464V7.97901L13.5049 3.09879L11.597 0H8.98846L4.09692 8.65437V10.7116H5.19313L2.04842 16.5172V18.564H4.20037L0 25.0047V27.0992H6.28478V25.7513Z" fill="#5F96F0"/>
<path d="M29.3824 31.525V29.3183H25.0294V30.6641C23.938 30.5359 22.8365 30.4705 21.7302 30.4705H20.6765V27.1205L28.5388 27.1418V26.3982L22.9616 17.8466H26.3079V17.103L22.0786 9.29503H24.077V8.5514L19.2557 0.0213013H17.7443L12.9229 8.55155V9.29518H14.9213L10.692 17.1031V17.8468H14.0382L8.4611 26.3983V27.142L16.3235 27.1206V30.4706H15.2698C14.1635 30.4706 13.062 30.536 11.9706 30.6641V29.3184H7.61765V31.5251C5.13335 32.2232 2.74467 33.2615 0.520757 34.6205L0 34.9387V37H37V34.9387L36.4792 34.6204C34.2553 33.2614 31.8666 32.2232 29.3824 31.525Z" fill="#5F96F0"/>
<path d="M32.7998 18.564H34.9518V16.5172L31.8071 10.7116H32.9033V8.65437L28.0117 0H25.3837L23.542 3.1812L26.2538 7.97901V11.4717H25.733L28.4846 16.5515V20.0232H26.9797L30.7154 25.7513V27.0992H37.0002V25.0047L32.7998 18.564Z" fill="#5F96F0"/>
</svg>
