<svg width="50" height="50" viewBox="0 0 50 50" fill="none" xmlns="http://www.w3.org/2000/svg">
<g clip-path="url(#clip0)">
<path d="M45.9957 28.4418C45.2899 28.9711 44.8237 29.3207 43.7494 29.3207C42.6751 29.3207 42.2089 28.971 41.5031 28.4418C40.6329 27.7891 39.5499 26.9769 37.499 26.9769C35.4482 26.9769 34.3652 27.7891 33.495 28.4418C32.7893 28.971 32.3231 29.3207 31.2488 29.3207C30.1747 29.3207 29.7085 28.9711 29.0028 28.4418C28.1327 27.7891 27.0497 26.9769 24.9989 26.9769C22.9481 26.9769 21.8653 27.7891 20.9951 28.4418C20.2895 28.971 19.8233 29.3207 18.7492 29.3207C17.675 29.3207 17.2089 28.971 16.5031 28.4418C15.633 27.7891 14.55 26.9769 12.4992 26.9769C10.4484 26.9769 9.36553 27.7891 8.49531 28.4418C7.78965 28.971 7.32344 29.3207 6.24922 29.3207C5.1751 29.3207 4.70898 28.9711 4.00332 28.4418C3.1331 27.7891 2.0502 26.9769 -0.000488281 26.9769V29.9066C1.07363 29.9066 1.53975 30.2562 2.24551 30.7855C3.11562 31.4382 4.19853 32.2504 6.24932 32.2504C8.3001 32.2504 9.38301 31.4382 10.2532 30.7855C10.9589 30.2563 11.4251 29.9066 12.4993 29.9066C13.5735 29.9066 14.0396 30.2563 14.7454 30.7855C15.6155 31.4382 16.6985 32.2504 18.7493 32.2504C20.8001 32.2504 21.8829 31.4382 22.7531 30.7855C23.4588 30.2563 23.9249 29.9066 24.999 29.9066C26.0732 29.9066 26.5394 30.2563 27.2451 30.7855C28.1152 31.4382 29.1982 32.2504 31.2489 32.2504C33.2997 32.2504 34.3827 31.4382 35.2529 30.7855C35.9587 30.2563 36.4248 29.9066 37.4991 29.9066C38.5734 29.9066 39.0396 30.2563 39.7454 30.7855C40.6156 31.4382 41.6986 32.2504 43.7495 32.2504C45.8004 32.2504 46.8834 31.4382 47.7536 30.7855C48.4594 30.2562 48.9256 29.9066 49.9999 29.9066V26.9769C47.9489 26.977 46.8659 27.7892 45.9957 28.4418Z" fill="#5F96F0"/>
<path d="M43.7494 36.1035C42.6751 36.1035 42.2089 35.7538 41.5031 35.2246C40.6329 34.572 39.5499 33.7598 37.499 33.7598C35.4482 33.7598 34.3652 34.572 33.495 35.2246C32.7893 35.7538 32.3231 36.1035 31.2488 36.1035C30.1747 36.1035 29.7085 35.7539 29.0028 35.2246C28.1327 34.572 27.0497 33.7598 24.9989 33.7598C22.9481 33.7598 21.8653 34.572 20.9951 35.2246C20.2895 35.7538 19.8233 36.1035 18.7492 36.1035C17.675 36.1035 17.2089 35.7538 16.5031 35.2246C15.633 34.572 14.55 33.7598 12.4992 33.7598C10.4484 33.7598 9.36553 34.572 8.49531 35.2246C7.78965 35.7538 7.32344 36.1035 6.24922 36.1035C5.1751 36.1035 4.70898 35.7539 4.00332 35.2246C3.1331 34.572 2.0502 33.7598 -0.000488281 33.7598V36.6895C1.07363 36.6895 1.53975 37.0391 2.24551 37.5684C3.11562 38.221 4.19853 39.0332 6.24932 39.0332C8.3001 39.0332 9.38301 38.221 10.2532 37.5684C10.9589 37.0392 11.4251 36.6895 12.4993 36.6895C13.5735 36.6895 14.0396 37.0392 14.7454 37.5684C15.6155 38.221 16.6985 39.0332 18.7493 39.0332C20.8001 39.0332 21.8829 38.221 22.7531 37.5684C23.4588 37.0392 23.9249 36.6895 24.999 36.6895C26.0732 36.6895 26.5394 37.0392 27.2451 37.5684C28.1152 38.221 29.1982 39.0332 31.2489 39.0332C33.2997 39.0332 34.3827 38.221 35.2529 37.5684C35.9587 37.0392 36.4248 36.6895 37.4991 36.6895C38.5734 36.6895 39.0396 37.0392 39.7454 37.5684C40.6156 38.221 41.6986 39.0332 43.7495 39.0332C45.8004 39.0332 46.8834 38.221 47.7536 37.5684C48.4594 37.0391 48.9256 36.6895 49.9999 36.6895V33.7598C47.949 33.7598 46.866 34.572 45.9958 35.2246C45.2899 35.7539 44.8237 36.1035 43.7494 36.1035Z" fill="#5F96F0"/>
<path d="M43.7494 42.8865C42.6751 42.8865 42.2089 42.5368 41.5031 42.0076C40.6329 41.3549 39.5499 40.5427 37.499 40.5427C35.4482 40.5427 34.3652 41.3549 33.495 42.0076C32.7893 42.5368 32.3231 42.8865 31.2488 42.8865C30.1747 42.8865 29.7085 42.5369 29.0028 42.0076C28.1327 41.3549 27.0497 40.5427 24.9989 40.5427C22.9481 40.5427 21.8653 41.3549 20.9951 42.0076C20.2895 42.5368 19.8233 42.8865 18.7492 42.8865C17.675 42.8865 17.2089 42.5368 16.5031 42.0076C15.633 41.3549 14.55 40.5427 12.4992 40.5427C10.4484 40.5427 9.36553 41.3549 8.49531 42.0076C7.78965 42.5368 7.32344 42.8865 6.24922 42.8865C5.1751 42.8865 4.70898 42.5369 4.00332 42.0076C3.1331 41.3549 2.0502 40.5427 -0.000488281 40.5427V43.4724C1.07363 43.4724 1.53975 43.822 2.24551 44.3513C3.11562 45.004 4.19853 45.8162 6.24932 45.8162C8.3001 45.8162 9.38301 45.004 10.2532 44.3513C10.9589 43.8221 11.4251 43.4724 12.4993 43.4724C13.5735 43.4724 14.0396 43.8221 14.7454 44.3513C15.6155 45.004 16.6985 45.8162 18.7493 45.8162C20.8001 45.8162 21.8829 45.004 22.7531 44.3513C23.4588 43.8221 23.9249 43.4724 24.999 43.4724C26.0732 43.4724 26.5394 43.8221 27.2451 44.3513C28.1152 45.004 29.1982 45.8162 31.2489 45.8162C33.2997 45.8162 34.3827 45.004 35.2529 44.3513C35.9587 43.8221 36.4248 43.4724 37.4991 43.4724C38.5734 43.4724 39.0396 43.8221 39.7454 44.3513C40.6156 45.004 41.6986 45.8162 43.7495 45.8162C45.8004 45.8162 46.8834 45.004 47.7536 44.3513C48.4594 43.822 48.9256 43.4724 49.9999 43.4724V40.5427C47.949 40.5427 46.866 41.3549 45.9958 42.0076C45.2899 42.5369 44.8237 42.8865 43.7494 42.8865Z" fill="#5F96F0"/>
<path d="M33.8379 16.5372V16.7814H36.7676V16.5372C36.7676 14.1409 38.7171 12.1915 41.1133 12.1915V9.26184C38.7416 9.26184 36.6317 10.403 35.3027 12.1647C33.9737 10.4031 31.8639 9.26184 29.4922 9.26184V12.1915C31.8884 12.1915 33.8379 14.1409 33.8379 16.5372Z" fill="#5F96F0"/>
<path d="M21.3923 10.6346V10.8442H24.322V10.6346C24.322 8.69299 25.9016 7.1134 27.8432 7.1134V4.18372C25.8365 4.18372 24.0412 5.10491 22.8571 6.54641C21.673 5.10491 19.8777 4.18372 17.8711 4.18372V7.1134C19.8127 7.1134 21.3923 8.69299 21.3923 10.6346Z" fill="#5F96F0"/>
</g>
<defs>
<clipPath id="clip0">
<rect width="50" height="50" fill="white"/>
</clipPath>
</defs>
</svg>
