<svg width="50" height="50" viewBox="0 0 50 50" fill="none" xmlns="http://www.w3.org/2000/svg">
<g clip-path="url(#clip0)">
<path d="M20.6082 42.8024C20.8128 42.8024 20.9786 42.6384 20.9835 42.434C21.1675 34.5856 23.0536 27.641 24.12 22.3753C25.0901 17.585 25.5117 12.4097 27.3087 7.91689C27.4005 7.68726 27.3173 7.42176 27.1109 7.28539C27.0235 7.22764 26.923 7.19952 26.8233 7.19952C26.6876 7.19952 26.5528 7.25171 26.4518 7.35256C26.3029 7.50139 22.7597 11.0776 19.5205 17.1966C16.5283 22.8485 13.2781 31.8009 14.7854 42.3531C14.8221 42.6095 15.0449 42.8028 15.3036 42.8028H20.6082V42.8024Z" fill="#5F96F0"/>
<path d="M0.524162 24.4766C0.429545 24.4766 0.334087 24.5024 0.24873 24.5552C0.0411447 24.6834 -0.0499367 24.9349 0.027171 25.1662C2.80726 33.5065 0.0562969 42.0252 0.0281812 42.1102C-0.0258616 42.2724 0.00107558 42.4486 0.0990597 42.5847C0.19738 42.7212 0.356142 42.8023 0.523994 42.8023H6.28334C6.57207 42.8023 6.80693 42.5675 6.80693 42.2788C6.80693 30.6819 1.14102 24.8771 0.894549 24.6307C0.793029 24.5292 0.659353 24.4766 0.524162 24.4766Z" fill="#5F96F0"/>
<path d="M9.5263 42.8024H12.0118C12.2099 42.8024 12.3611 42.6273 12.3348 42.4308C11.5466 36.5235 12.1325 31.013 13.3425 26.3488C13.3571 26.2923 13.3563 26.2325 13.3401 26.1763C10.8169 17.3868 6.89605 13.3538 6.65379 13.1116C6.5526 13.0102 6.4196 12.9573 6.28458 12.9573C6.2004 12.9573 6.11555 12.978 6.03692 13.02C5.83153 13.1299 5.72445 13.3565 5.77025 13.5845C6.92299 19.3479 7.13815 25.1491 6.98798 30.0062C6.98663 30.0503 6.9942 30.0929 7.01054 30.1338C8.21412 33.1498 9.15979 37.5857 9.20019 42.4771C9.20154 42.6568 9.34633 42.8024 9.5263 42.8024Z" fill="#5F96F0"/>
<path d="M37.3118 21.4624C34.7667 17.4688 32.5833 15.9871 32.4915 15.9261C32.4033 15.8672 32.302 15.8379 32.2011 15.8379C32.0886 15.8379 31.9765 15.8741 31.8827 15.9456C31.7055 16.0812 31.6334 16.315 31.7041 16.5271C34.5123 24.9511 31.713 42.0219 31.6844 42.1934C31.6592 42.3449 31.7018 42.4997 31.8014 42.6172C31.9013 42.7352 32.0469 42.8025 32.2009 42.8025H43.7198C43.8717 42.8025 44.0158 42.7367 44.1154 42.6221C44.2149 42.5072 44.2597 42.3554 44.2382 42.205C42.7354 31.6861 39.6422 25.1191 37.3118 21.4624Z" fill="#5F96F0"/>
<path d="M33.5361 13.7142C33.9173 11.4431 34.5471 9.46676 35.5163 8.01282C35.6665 7.78773 35.6177 7.47963 35.4056 7.31178C35.3087 7.23501 35.1943 7.19763 35.0801 7.19763C34.9404 7.19763 34.8015 7.2542 34.6979 7.36498C34.5991 7.47104 32.5081 9.73747 30.1343 14.2355C30.218 14.1542 30.3052 14.0757 30.3996 14.0037C31.3118 13.3077 32.5315 13.2072 33.5361 13.7142Z" fill="#5F96F0"/>
<path d="M46.589 42.4516C46.6184 42.6529 46.7905 42.8024 46.9941 42.8024H49.479C49.6778 42.8024 49.8578 42.6925 49.9484 42.5112C50.025 42.358 50.0125 42.1753 49.9361 42.0219C44.3352 30.7893 47.0873 13.7389 47.1158 13.5678C47.1501 13.3616 47.059 13.1554 46.8838 13.0421C46.7078 12.9284 46.4826 12.9301 46.3087 13.0461C46.063 13.2097 42.0703 15.9213 39.5259 20.3998C42.9717 25.9054 45.3376 33.9196 46.589 42.4516Z" fill="#5F96F0"/>
<path d="M28.9316 42.8023C29.1289 42.8023 29.2961 42.6589 29.3247 42.4636C29.6878 39.9803 31.7963 24.5306 29.3858 17.2997C29.3843 17.2953 29.3829 17.2909 29.3814 17.2866C29.2664 16.9381 28.7869 16.9071 28.6388 17.2428C26.2498 22.6573 23.6019 31.1861 23.4185 42.2703C23.4163 42.4095 23.471 42.5466 23.5689 42.6459C23.6667 42.7454 23.8027 42.8023 23.9421 42.8023H28.9316Z" fill="#5F96F0"/>
</g>
<defs>
<clipPath id="clip0">
<rect width="50" height="50" fill="white"/>
</clipPath>
</defs>
</svg>
