<svg width="14" height="14" viewBox="0 0 14 14" fill="none" xmlns="http://www.w3.org/2000/svg">
<g clip-path="url(#clip0)">
<path d="M3.11403 13.6318C2.9616 13.6318 2.81023 13.5842 2.68105 13.4908C2.4404 13.3164 2.32799 13.0166 2.39348 12.7274L3.28855 8.7846L0.253058 6.12255C0.0299288 5.92776 -0.0553103 5.61929 0.0362979 5.33703C0.127906 5.05531 0.377148 4.85585 0.672247 4.82857L4.68857 4.46394L6.27648 0.74792C6.39356 0.474901 6.66022 0.298584 6.95648 0.298584C7.25275 0.298584 7.5194 0.474901 7.63648 0.747284L9.22439 4.46394L13.2401 4.82857C13.5358 4.85521 13.7851 5.05531 13.8767 5.33703C13.9683 5.61876 13.8836 5.92776 13.6604 6.12255L10.6249 8.78407L11.52 12.7267C11.5856 13.0166 11.4731 13.3164 11.2326 13.4903C10.9925 13.6641 10.6725 13.6775 10.4198 13.5256L6.95648 11.456L3.49321 13.5268C3.37612 13.5963 3.24566 13.6318 3.11403 13.6318ZM6.95648 10.5644C7.08811 10.5644 7.21846 10.5998 7.33565 10.6693L10.6041 12.6242L9.75939 8.90285C9.6991 8.63801 9.78901 8.36148 9.99367 8.1823L12.8598 5.66865L9.06782 5.3243C8.7948 5.29935 8.56 5.1277 8.45331 4.87613L6.95648 1.36933L5.45784 4.87666C5.35233 5.12654 5.11753 5.29818 4.84514 5.32313L1.05259 5.66748L3.91866 8.18113C4.12395 8.36085 4.21376 8.63684 4.15293 8.90232L3.30882 12.6235L6.57731 10.6693C6.6944 10.5998 6.82486 10.5644 6.95648 10.5644ZM4.65789 4.53581C4.65789 4.53581 4.65789 4.53644 4.65726 4.53697L4.65789 4.53581ZM9.2539 4.53411L9.25454 4.53528C9.25454 4.53464 9.25454 4.53464 9.2539 4.53411Z" fill="#ECD146"/>
<g clip-path="url(#clip1)">
<path d="M13.8767 5.33653C13.7851 5.05481 13.5352 4.85536 13.2407 4.82871L9.22443 4.46409L7.63717 0.747993C7.51998 0.474976 7.25333 0.298767 6.95654 0.298767C6.65974 0.298767 6.39299 0.474976 6.27654 0.747993L4.68928 4.46409L0.672362 4.82871C0.377902 4.85589 0.128556 5.05534 0.0364178 5.33653C-0.0551895 5.61826 0.0294119 5.92726 0.252114 6.12257L3.28811 8.78471L2.39295 12.7273C2.32745 13.0172 2.43997 13.317 2.68051 13.4909C2.8098 13.5848 2.9617 13.6317 3.11413 13.6317C3.24512 13.6317 3.37621 13.5969 3.49329 13.5268L6.95654 11.4561L10.4191 13.5268C10.6732 13.6786 10.9926 13.6647 11.2326 13.4909C11.4731 13.317 11.5856 13.0172 11.5201 12.7273L10.625 8.78471L13.661 6.12257C13.8836 5.92726 13.9683 5.61889 13.8767 5.33653Z" fill="#ECD146"/>
</g>
</g>
<defs>
<clipPath id="clip0">
<rect width="13.913" height="13.913" fill="white"/>
</clipPath>
<clipPath id="clip1">
<rect width="13.913" height="13.913" fill="white"/>
</clipPath>
</defs>
</svg>
