<svg width="60" height="60" viewBox="0 0 60 60" fill="none" xmlns="http://www.w3.org/2000/svg">
<path d="M30.5791 17.0592C29.067 14.2109 26.1131 12.4175 22.8429 12.4175C19.5727 12.4175 16.6187 14.2109 15.1068 17.0592C10.9926 18.2898 8.24971 20.3646 7.40576 22.9668H38.3504C37.5063 20.3997 34.7636 18.2898 30.5791 17.0592Z" fill="#5F96F0"/>
<path d="M8.95288 40.5491L10.5353 53.0676C10.6758 53.9467 11.4144 54.6149 12.2935 54.6149H33.3921C34.2712 54.6149 35.0098 53.9467 35.1503 53.0676L38.4909 26.4834H38.1743C36.557 30.2108 30.2976 40.4787 8.95288 40.5491Z" fill="#5F96F0"/>
<path d="M49.4507 37.0327C43.6334 37.0327 38.9014 41.7648 38.9014 47.582V52.8567C38.9014 53.8285 39.6878 54.6149 40.6596 54.6149H58.2418C59.2136 54.6149 60 53.8285 60 52.8567V47.582C60 41.7648 55.2679 37.0327 49.4507 37.0327Z" fill="#5F96F0"/>
<path d="M47.6924 15.6843V33.694C49.5695 33.456 49.302 33.4521 51.2089 33.694V15.6843C57.4637 14.0582 56.3976 7.43907 56.4835 7.14298C56.4835 6.17116 55.6971 5.38477 54.7253 5.38477H44.176C43.2042 5.38477 42.4178 6.17116 42.4178 7.14298C42.4979 7.41914 41.4483 14.061 47.6924 15.6843ZM52.9671 8.9012C52.9671 10.8397 51.3909 12.4176 49.4506 12.4176C47.5104 12.4176 45.9342 10.8397 45.9342 8.9012H52.9671Z" fill="#5F96F0"/>
<path d="M3.57289 35.6259C3.0453 34.2194 5.08495 31.1599 7.47613 28.5226L8.53106 37.0325C8.69129 36.9856 27.579 37.9614 34.201 26.4832C32.685 26.4832 29.6516 26.4832 4.55749 26.4832C1.99061 29.3666 -0.963317 33.5862 0.302717 36.8566C1.51976 40.0517 5.54631 40.5489 8.95303 40.5489L8.53106 37.0325C4.41671 36.9974 3.71343 35.9425 3.57289 35.6259Z" fill="#5F96F0"/>
</svg>
