<svg width="53" height="53" viewBox="0 0 53 53" fill="none" xmlns="http://www.w3.org/2000/svg">
<path d="M24.3542 13.9746H28.6456L26.4999 9.68335L24.3542 13.9746Z" fill="#5F96F0"/>
<path d="M38.9219 0H14.0781C13.2199 0 12.5254 0.694486 12.5254 1.55273V24.9473H40.4746V1.55273C40.4746 0.694486 39.7801 0 38.9219 0ZM33.4054 20.0218C33.181 20.1324 32.9445 20.1855 32.7109 20.1855C32.1438 20.1855 31.5949 19.8717 31.322 19.3273L30.1984 17.0801H22.8017L21.6781 19.3273C21.4051 19.8717 20.8562 20.1855 20.2891 20.1855C20.0555 20.1855 19.819 20.1324 19.5946 20.0218C18.8273 19.6382 18.518 18.7056 18.9001 17.9383L25.111 5.51645C25.1187 5.50123 25.5693 4.67073 26.5057 4.67601C27.4376 4.67787 27.8814 5.50134 27.889 5.51645L34.0999 17.9383C34.482 18.7056 34.1727 19.6382 33.4054 20.0218Z" fill="#5F96F0"/>
<path d="M15.6309 37.3691C15.6309 36.5124 14.9334 35.8164 14.0781 35.8164H9.41992V38.9219H14.0781C14.9334 38.9219 15.6309 38.2258 15.6309 37.3691Z" fill="#5F96F0"/>
<path d="M24.9473 28.0527H1.55273C0.694486 28.0527 0 28.7472 0 29.6055V51.4473C0 52.3055 0.694486 53 1.55273 53H24.9473V28.0527ZM14.0781 48.2383H7.86719C7.00894 48.2383 6.31445 47.5438 6.31445 46.6855C6.31445 46.3485 6.31445 33.8025 6.31445 34.2637C6.31445 33.4054 7.00894 32.7109 7.86719 32.7109H14.0781C16.6468 32.7109 18.7363 34.8005 18.7363 37.3691C18.7363 38.5665 18.2697 39.6486 17.5248 40.4746C18.2697 41.3007 18.7363 42.3827 18.7363 43.5801C18.7363 46.1487 16.6468 48.2383 14.0781 48.2383Z" fill="#5F96F0"/>
<path d="M14.0781 42.0273H9.41992V45.1328H14.0781C14.9334 45.1328 15.6309 44.4368 15.6309 43.5801C15.6309 42.7234 14.9334 42.0273 14.0781 42.0273Z" fill="#5F96F0"/>
<path d="M51.4473 28.0527H28.0527V53H51.4473C52.3055 53 53 52.3055 53 51.4473V29.6055C53 28.7472 52.3055 28.0527 51.4473 28.0527ZM40.4746 45.1328C41.721 45.1328 42.8886 44.6491 43.7651 43.7696C44.3716 43.16 45.3572 43.1631 45.9637 43.7666C46.5702 44.3717 46.5702 45.3558 45.9667 45.9623C44.502 47.43 42.552 48.2383 40.4746 48.2383C36.1925 48.2383 32.7109 44.7553 32.7109 40.4746C32.7109 36.1939 36.1925 32.7109 40.4746 32.7109C42.552 32.7109 44.502 33.5192 45.9668 34.9869C46.5703 35.5934 46.5703 36.5776 45.9638 37.1826C45.3573 37.7861 44.3717 37.7891 43.7652 37.1796C42.8886 36.3001 41.721 35.8164 40.4746 35.8164C37.906 35.8164 35.8164 37.906 35.8164 40.4746C35.8164 43.0432 37.906 45.1328 40.4746 45.1328Z" fill="#5F96F0"/>
</svg>
