<svg width="69" height="69" viewBox="0 0 69 69" fill="none" xmlns="http://www.w3.org/2000/svg">
<path d="M34.4999 41.3944L13.9165 35.0591V41.2919V45.64C13.9165 50.5316 23.1351 54.4976 34.5061 54.4976C45.8765 54.4976 55.0967 50.5316 55.0967 45.64C55.0967 45.6015 55.084 45.5628 55.0832 45.5251V35.0591L34.4999 41.3944Z" fill="#5F96F0"/>
<path d="M0 27.7756L7.35338 30.406L7.98002 29.0639L10.6815 28.8343L11.0666 29.2351L8.74854 29.7848L8.41068 30.7847C8.41007 30.7847 3.17453 41.7302 3.94348 47.0848C3.94348 47.0848 7.21151 49.0342 10.4781 47.0848L11.3463 32.4448V31.2262L16.2088 30.1293L15.8654 30.975L12.2399 32.1539L13.9167 32.753L34.5001 39.0882L55.0834 32.753L69 27.7757L34.5001 14.5027L0 27.7756Z" fill="#5F96F0"/>
</svg>
