<svg width="60" height="60" viewBox="0 0 60 60" fill="none" xmlns="http://www.w3.org/2000/svg">
<g clip-path="url(#clip0)">
<path d="M47.8425 26.9161L33.0836 12.1571C31.7453 10.8188 29.9643 10.0828 28.0633 10.0828C28.0564 10.0828 28.0462 10.0828 28.0359 10.0828C23.3028 10.1037 21.0283 14.1734 19.0762 18.4453C16.7706 23.4822 14.4104 27.1456 8.83653 29.0917C-4.01432 33.5646 -0.0418818 43.6301 3.43862 47.1106L12.8891 56.5628C16.3477 60.0213 26.4219 64.0403 30.908 51.1632C32.8451 45.6151 36.516 43.2251 41.556 40.9218C45.7955 38.9829 49.8983 36.7133 49.9152 31.9638C49.922 30.0526 49.1877 28.2614 47.8425 26.9161ZM36.7382 28.2304C36.0519 28.9167 34.94 28.9167 34.2537 28.2304L30.5271 24.5039L28.0429 26.9885L29.285 28.2306C29.9712 28.9168 29.9712 30.0287 29.285 30.715C28.5987 31.4012 27.4869 31.4014 26.8005 30.715L25.5585 29.4729L23.0743 31.9576L26.8005 35.6839C27.4868 36.3701 27.4868 37.482 26.8005 38.1683C26.1143 38.8545 25.0025 38.8547 24.3161 38.1683L20.5899 34.442L18.1049 36.9275L19.3472 38.1699C20.0335 38.8562 20.0335 39.9681 19.3472 40.6544C18.661 41.3406 17.5492 41.3407 16.8628 40.6544L15.6204 39.412L13.1362 41.8966L16.8628 45.6232C17.5491 46.3095 17.5491 47.4214 16.8628 48.1076C16.1766 48.7939 15.0648 48.794 14.3784 48.1076L9.40952 43.1388C8.72326 42.4525 8.72326 41.3406 9.40952 40.6544C24.3226 25.74 29.5662 20.4959 29.285 20.7773C29.9712 20.091 31.0831 20.091 31.7694 20.7773L36.7383 25.7461C37.4244 26.4323 37.4244 27.5442 36.7382 28.2304Z" fill="#5F96F0"/>
<path d="M58.4541 1.49482C56.4707 -0.495443 52.974 -0.503993 50.9699 1.50349L48.3127 4.24584C46.8652 5.68173 45.0114 6.73847 43.3433 7.50344L52.499 16.6592C53.2637 14.9799 54.3141 13.1404 55.742 11.6991L58.4473 8.9774C58.4473 8.974 58.4507 8.97049 58.4543 8.96885C60.513 6.90807 60.513 3.55548 58.4541 1.49482Z" fill="#5F96F0"/>
<path d="M50.3965 24.5012L51.6378 23.2514C52.3241 22.5651 52.3241 21.4532 51.6378 20.7669L39.2329 8.36186C38.5466 7.6756 37.4347 7.6756 36.7484 8.36186L35.4985 9.6032L50.3965 24.5012Z" fill="#5F96F0"/>
</g>
<defs>
<clipPath id="clip0">
<rect width="60" height="60" fill="white"/>
</clipPath>
</defs>
</svg>
