<svg width="51" height="51" viewBox="0 0 51 51" fill="none" xmlns="http://www.w3.org/2000/svg">
<g clip-path="url(#clip0)">
<path d="M13.5997 11.0507V7.65076C13.5997 7.18136 13.2191 6.80078 12.7497 6.80078H0.849983C0.380583 6.80078 0 7.18136 0 7.65076V11.0507H13.5997Z" fill="#5F96F0"/>
<path d="M0 12.7507V40.8002H13.5997V12.7507H0ZM10.1998 23.8005H3.39993C2.93053 23.8005 2.54995 23.4199 2.54995 22.9505V16.1507C2.54995 15.6813 2.93053 15.3007 3.39993 15.3007H10.1998C10.6692 15.3007 11.0498 15.6813 11.0498 16.1507V22.9505C11.0498 23.4199 10.6692 23.8005 10.1998 23.8005Z" fill="#5F96F0"/>
<path d="M0 45.9001V50.1501C0 50.6195 0.380583 51 0.849983 51H12.7497C13.2191 51 13.5997 50.6195 13.5997 50.1501V45.9001H0Z" fill="#5F96F0"/>
<path d="M0 42.5H13.5997V44.2H0V42.5Z" fill="#5F96F0"/>
<path d="M15.2998 42.5H26.3496V44.2H15.2998V42.5Z" fill="#5F96F0"/>
<path d="M26.3496 3.40091V0.85096C26.3496 0.38156 25.969 0.000976562 25.4996 0.000976562H16.1498C15.6804 0.000976562 15.2998 0.38156 15.2998 0.85096V3.40091H26.3496Z" fill="#5F96F0"/>
<path d="M15.2998 9.35083H26.3496V40.8002H15.2998V9.35083Z" fill="#5F96F0"/>
<path d="M15.2998 45.9001V50.1501C15.2998 50.6195 15.6804 51 16.1498 51H25.4996C25.969 51 26.3496 50.6195 26.3496 50.1501V45.9001H15.2998Z" fill="#5F96F0"/>
<path d="M15.2998 5.10083H26.3496V7.65078H15.2998V5.10083Z" fill="#5F96F0"/>
<path d="M28.0291 17.6023L28.4839 19.3483L42.8789 15.5097L42.4236 13.7637L28.0291 17.6023Z" fill="#5F96F0"/>
<path d="M35.1322 44.8315L49.5267 40.9929L48.6153 37.4988L34.22 41.3374L35.1322 44.8315Z" fill="#5F96F0"/>
<path d="M48.1863 35.8542L43.3084 17.1545L28.9131 20.9932L33.7909 39.6928L48.1863 35.8542Z" fill="#5F96F0"/>
<path d="M27.5999 15.9575L41.994 12.1193L40.7738 7.4382C40.648 6.98498 40.1849 6.71397 39.7283 6.82644L26.9786 10.2264C26.5283 10.3496 26.2598 10.8107 26.3747 11.2631L27.5999 15.9575Z" fill="#5F96F0"/>
<path d="M49.9561 42.6379L35.5608 46.4766L36.5747 50.3625C36.6336 50.5816 36.7772 50.7684 36.9744 50.8813C37.1026 50.9589 37.2496 51 37.3994 51C37.4737 51 37.548 50.9913 37.6202 50.9747L50.3699 47.5747C50.8202 47.4515 51.0888 46.9899 50.9738 46.5376L49.9561 42.6379Z" fill="#5F96F0"/>
</g>
<defs>
<clipPath id="clip0">
<rect width="51" height="51" fill="white"/>
</clipPath>
</defs>
</svg>
