<svg width="101" height="101" viewBox="0 0 101 101" fill="none" xmlns="http://www.w3.org/2000/svg">
<g clip-path="url(#clip0)">
<path d="M60.9491 22.5899C65.6191 25.518 68.8938 30.4728 69.49 36.2242C71.3945 37.1141 73.5083 37.6259 75.7494 37.6259C83.931 37.6259 90.5622 30.9946 90.5622 22.8143C90.5622 14.6327 83.931 8.00146 75.7494 8.00146C67.6459 8.00399 61.0727 14.5167 60.9491 22.5899ZM51.2449 52.9189C59.4265 52.9189 66.0578 46.2864 66.0578 38.1061C66.0578 29.9258 59.4253 23.2945 51.2449 23.2945C43.0646 23.2945 36.4296 29.927 36.4296 38.1074C36.4296 46.2877 43.0646 52.9189 51.2449 52.9189ZM57.5283 53.9285H44.9591C34.5011 53.9285 25.993 62.4379 25.993 72.8958V88.267L26.0321 88.5078L27.0909 88.8393C37.0711 91.9576 45.7418 92.9975 52.8785 92.9975C66.8178 92.9975 74.8973 89.0233 75.3952 88.77L76.3846 88.2696H76.4905V72.8958C76.4943 62.4379 67.9862 53.9285 57.5283 53.9285ZM82.0352 38.6367H69.5631C69.4282 43.6269 67.298 48.1204 63.9289 51.3522C73.2247 54.1164 80.0261 62.7366 80.0261 72.9185V77.6553C92.3407 77.204 99.437 73.7139 99.9047 73.4794L100.894 72.9778H101V57.6015C101 47.1448 92.492 38.6367 82.0352 38.6367ZM25.2532 37.6284C28.1509 37.6284 30.847 36.7826 33.131 35.3419C33.857 30.6064 36.3955 26.4683 40.0219 23.65C40.037 23.3727 40.0635 23.0979 40.0635 22.8181C40.0635 14.6365 33.431 8.00525 25.2532 8.00525C17.0703 8.00525 10.4403 14.6365 10.4403 22.8181C10.4403 30.9959 17.0703 37.6284 25.2532 37.6284ZM38.556 51.3522C35.2032 48.1368 33.0806 43.6672 32.9255 38.7073C32.4629 38.6733 32.0054 38.6367 31.534 38.6367H18.966C8.50805 38.6367 0 47.1448 0 57.6015V72.9752L0.039074 73.2122L1.09785 73.5462C9.10424 76.0457 16.2497 77.1977 22.4562 77.5608V72.9185C22.4587 62.7366 29.2576 54.1189 38.556 51.3522Z" fill="#5F96F0"/>
</g>
<defs>
<clipPath id="clip0">
<rect width="101" height="101" fill="white"/>
</clipPath>
</defs>
</svg>
