<svg width="52" height="32" viewBox="0 0 52 32" fill="none" xmlns="http://www.w3.org/2000/svg">
<path d="M23.971 1.55451L0.830725 24.6952C0.295087 25.2304 0 25.9449 0 26.7067C0 27.4685 0.295087 28.1829 0.830725 28.7182L2.53445 30.4223C3.64462 31.5312 5.44896 31.5312 6.55744 30.4223L25.9892 10.9905L45.4426 30.4439C45.9782 30.9791 46.6922 31.2746 47.4536 31.2746C48.2159 31.2746 48.9299 30.9791 49.466 30.4439L51.1693 28.7397C51.7049 28.2041 52 27.49 52 26.7282C52 25.9664 51.7049 25.2519 51.1693 24.7167L28.0079 1.55451C27.4706 1.01803 26.7531 0.723368 25.9905 0.72506C25.2249 0.723368 24.5079 1.01803 23.971 1.55451Z" fill="#2D4770"/>
</svg>
