<svg width="113" height="112" viewBox="0 0 113 112" fill="none" xmlns="http://www.w3.org/2000/svg">
<path d="M111.523 75.679L68.7137 45.3825C67.8223 44.7482 66.5687 45.2351 66.339 46.3064L62.6684 63.3587L40.0577 75.5842C38.6618 76.3408 39.1987 78.4558 40.7843 78.4558H50.5952V88.796H41.6583C38.9815 88.796 36.8115 90.9659 36.8115 93.6428V111.571H42.9542V96C42.9542 95.4981 43.3613 95.0935 43.8607 95.0935H50.5952V111.574H105.737V78.4558H110.641C112.127 78.4558 112.741 76.543 111.523 75.679ZM93.3395 95.0885H83.8258C83.0192 95.0885 82.3625 94.4293 82.3625 93.6253V86.0617C82.3625 85.2552 83.0192 84.5985 83.8258 84.5985H93.3395C94.146 84.5985 94.8003 85.2552 94.8003 86.0617V93.6253C94.7978 94.4343 94.146 95.0885 93.3395 95.0885Z" fill="#5F96F0"/>
<path d="M8.97935 14.5515C13.6863 13.5677 18.8876 14.5215 23.8018 18.4269C26.0791 20.2373 27.7521 22.2474 28.9032 24.3649C27.4275 22.6894 25.3774 21.5033 23.0027 21.1487C19.362 20.6018 15.7463 22.3897 13.5564 25.3512C12.6775 26.5373 12.1756 27.7209 11.9309 28.887C11.7636 29.6811 12.6974 30.2879 13.3367 29.7859C15.5316 28.078 18.4556 27.174 22.0339 27.6784C24.9729 28.093 27.2277 29.2965 28.8483 30.9596C28.5911 31.1818 1.38586 61.813 0 111.569H16.7227C15.2619 56.699 34.3318 35.3543 34.3468 35.2744C36.1771 36.4855 37.7253 38.3408 38.7266 40.9427C40.03 44.3237 39.8053 47.3876 38.6267 49.9196C38.2871 50.6462 39.0812 51.4103 39.8078 51.0732C40.8965 50.5688 41.9453 49.8072 42.9116 48.676C45.2988 45.8719 46.2252 41.9465 44.8668 38.5256C43.9829 36.2907 42.3673 34.5628 40.3996 33.504C42.7218 34.1483 45.0591 35.3244 47.3364 37.1322C52.1731 40.9752 54.2881 45.732 54.4529 50.4689C54.4854 51.3579 55.5741 51.7524 56.1459 51.0682C57.7191 49.1854 58.9052 46.7933 59.3321 43.6121C60.0763 38.0886 58.1685 32.3629 53.7762 28.932C52.3554 27.8208 50.7998 26.9993 49.1817 26.4524C49.344 26.4674 49.5038 26.4849 49.6686 26.5048C55.5766 27.194 59.7866 29.9358 62.446 33.6514C63.0652 34.5178 64.4736 34.1458 64.5784 33.087C64.7782 31.022 64.5335 28.7946 63.5771 26.3775C61.3498 20.7841 56.4481 16.6066 50.4502 16.0997C48.2952 15.9199 46.2027 16.1896 44.265 16.8338C44.4548 14.8037 44.2475 12.7062 43.5858 10.6511C41.7405 4.92293 36.5616 1.08498 30.6112 0.181053C27.9668 -0.218473 25.692 0.0711835 23.6869 0.775348C22.7405 1.10745 22.6956 2.48582 23.6245 2.86287C27.9094 4.58833 31.595 8.08918 33.6251 13.7525C33.6801 13.9098 33.7325 14.0621 33.7824 14.2169C32.886 12.7636 31.7324 11.4352 30.329 10.3016C25.9942 6.8007 19.9863 6.23637 14.775 8.20654C11.6787 9.37765 9.58114 11.1431 8.0929 13.1781C7.61847 13.8324 8.1828 14.7188 8.97935 14.5515Z" fill="#5F96F0"/>
</svg>
