<svg width="112" height="112" viewBox="0 0 112 112" fill="none" xmlns="http://www.w3.org/2000/svg">
<g clip-path="url(#clip0)">
<path d="M74.5938 81.5063H37.4062V88.0688H74.5938V81.5063Z" fill="#5F96F0"/>
<path d="M74.5938 94.6313H37.4062V112H74.5938V94.6313Z" fill="#5F96F0"/>
<path d="M28.6489 21.5267L30.1316 19.6875H9.03881C7.58128 19.6875 6.29853 20.6489 5.88947 22.0478L0.131966 41.7353C-0.158097 42.7271 0.0359347 43.7975 0.655653 44.6241C1.27537 45.451 2.24815 45.9375 3.28131 45.9375H30.8438V35.8776C25.9716 32.6202 25.0795 25.9542 28.6489 21.5267Z" fill="#5F96F0"/>
<path d="M111.868 41.7353L106.111 22.0478C105.701 20.6489 104.419 19.6875 102.961 19.6875H81.8687C81.8687 19.6875 82.9808 21.0672 83.3514 21.527C86.8823 25.907 86.0775 32.5878 81.1562 35.8778V45.9375H108.719C109.752 45.9375 110.725 45.4508 111.344 44.6241C111.964 43.7973 112.158 42.7269 111.868 41.7353Z" fill="#5F96F0"/>
<path d="M78.2423 25.6454L58.5548 1.22216C57.9318 0.449312 56.9925 0 56 0C55.0075 0 54.0682 0.449312 53.4454 1.22194L33.7579 25.6454C32.0316 27.7867 33.5598 30.9859 36.3125 30.9859H75.6875C78.4374 30.9859 79.9702 27.7887 78.2423 25.6454Z" fill="#5F96F0"/>
<path d="M37.4062 37.5484V74.9435H74.5938V37.5484H37.4062ZM63.6562 62.2127C63.6562 64.0248 62.1871 65.4939 60.375 65.4939H51.625C49.8129 65.4939 48.3438 64.0248 48.3438 62.2127V53.5937C48.3438 51.7816 49.8129 50.3125 51.625 50.3125H60.375C62.1871 50.3125 63.6562 51.7816 63.6562 53.5937V62.2127Z" fill="#5F96F0"/>
<path d="M81.1562 52.5V112H101.938C103.75 112 105.219 110.531 105.219 108.719V52.5H81.1562ZM98.6562 102.156C98.6562 103.968 97.1871 105.438 95.375 105.438H91C89.1879 105.438 87.7188 103.968 87.7188 102.156V96.8185C87.7188 95.0064 89.1879 93.5373 91 93.5373H95.375C97.1871 93.5373 98.6562 95.0064 98.6562 96.8185V102.156ZM98.6562 83.6935C98.6562 85.5057 97.1871 86.9748 95.375 86.9748H91C89.1879 86.9748 87.7188 85.5057 87.7188 83.6935V62.3438C87.7188 60.5316 89.1879 59.0625 91 59.0625H95.375C97.1871 59.0625 98.6562 60.5316 98.6562 62.3438V83.6935Z" fill="#5F96F0"/>
<path d="M6.78125 52.5V108.719C6.78125 110.531 8.25037 112 10.0625 112H30.8438V52.5H6.78125ZM24.2812 102.156C24.2812 103.968 22.8121 105.438 21 105.438H16.625C14.8129 105.438 13.3438 103.968 13.3438 102.156V96.8185C13.3438 95.0064 14.8129 93.5373 16.625 93.5373H21C22.8121 93.5373 24.2812 95.0064 24.2812 96.8185V102.156ZM24.2812 83.6935C24.2812 85.5057 22.8121 86.9748 21 86.9748H16.625C14.8129 86.9748 13.3438 85.5057 13.3438 83.6935V62.3438C13.3438 60.5316 14.8129 59.0625 16.625 59.0625H21C22.8121 59.0625 24.2812 60.5316 24.2812 62.3438V83.6935Z" fill="#5F96F0"/>
</g>
<defs>
<clipPath id="clip0">
<rect width="112" height="112" fill="white"/>
</clipPath>
</defs>
</svg>
