<svg width="93" height="93" viewBox="0 0 93 93" fill="none" xmlns="http://www.w3.org/2000/svg">
<path d="M46.5002 0C27.9283 0 12.8191 15.1092 12.8191 33.6809C12.8191 56.7289 42.9604 90.5647 44.2436 91.9939C45.449 93.3364 47.5535 93.334 48.7567 91.9939C50.04 90.5647 80.1812 56.7289 80.1812 33.6809C80.1809 15.1092 65.0718 0 46.5002 0ZM46.5002 50.6267C37.1562 50.6267 29.5546 43.0249 29.5546 33.6809C29.5546 24.3369 37.1564 16.7353 46.5002 16.7353C55.8439 16.7353 63.4456 24.3371 63.4456 33.6811C63.4456 43.025 55.8439 50.6267 46.5002 50.6267Z" fill="#5F96F0"/>
</svg>
