<svg width="100" height="100" viewBox="0 0 100 100" fill="none" xmlns="http://www.w3.org/2000/svg">
<path d="M83.3333 0C74.1435 0 66.6667 7.47676 66.6667 16.6666C66.6667 24.6381 78.4771 40.7719 81.2443 44.4439C81.2435 45.6301 81.2443 46.7947 81.2156 47.8637C81.1851 49.0131 82.0925 49.9715 83.2439 50.002C83.2623 50.002 83.2806 50.002 83.3009 50.002C84.424 50.002 85.3517 49.1047 85.3822 47.9736C85.4109 46.8768 85.4101 45.6795 85.4109 44.4596C88.1597 40.8127 99.9999 24.6475 99.9999 16.6666C99.9999 7.47676 92.5232 0 83.3333 0ZM83.3333 20.8334C81.0365 20.8334 79.1667 18.9637 79.1667 16.6668C79.1667 14.3699 81.0365 12.5002 83.3333 12.5002C85.6302 12.5002 87.4999 14.3697 87.4999 16.6666C87.4999 18.9637 85.6302 20.8334 83.3333 20.8334Z" fill="#5F96F0"/>
<path d="M63.7695 60.0443C60.3312 61.9955 58.4209 65.3828 57.2814 67.7591C56.783 68.7968 57.2203 70.0419 58.258 70.5382C58.549 70.6787 58.8562 70.7437 59.1572 70.7437C59.9343 70.7437 60.6791 70.3084 61.0371 69.5617C62.4836 66.5445 63.9607 64.7277 65.8283 63.6656C66.8273 63.098 67.1793 61.8263 66.6095 60.8253C66.0441 59.8246 64.7765 59.4726 63.7695 60.0443Z" fill="#5F96F0"/>
<path d="M44.8099 90.2892C42.7224 91.9433 40.3503 93.1884 37.5548 94.0978C36.4603 94.4538 35.862 95.6298 36.2181 96.7244C36.505 97.6033 37.3208 98.1628 38.1997 98.1628C38.4134 98.1628 38.631 98.1302 38.8446 98.0611C42.0733 97.0113 44.9501 95.4956 47.3977 93.5566C48.2991 92.8404 48.4517 91.5302 47.7376 90.6288C47.0173 89.7298 45.7091 89.5691 44.8099 90.2892Z" fill="#5F96F0"/>
<path d="M56.5571 75.0856C55.4788 74.6664 54.2784 75.2016 53.8614 76.2758C52.9276 78.6887 51.7599 81.5024 50.1851 84.0801C49.5849 85.0627 49.8962 86.3445 50.8769 86.9447C51.2167 87.1524 51.5909 87.25 51.9612 87.25C52.6632 87.25 53.3487 86.8959 53.7415 86.2531C55.4872 83.3926 56.7464 80.3652 57.7474 77.7815C58.1624 76.709 57.6294 75.5026 56.5571 75.0856Z" fill="#5F96F0"/>
<path d="M82.56 54.8869C81.6139 54.2461 80.3139 54.4922 79.6668 55.4444C78.9813 56.4576 77.5773 57.8512 73.3313 58.2317C72.1857 58.3354 71.3395 59.3465 71.4432 60.494C71.5408 61.5764 72.4502 62.3901 73.5164 62.3901C73.5795 62.3901 73.6426 62.3881 73.7057 62.3819C78.2162 61.977 81.2943 60.4715 83.1174 57.7797C83.7625 56.8278 83.5121 55.5319 82.56 54.8869Z" fill="#5F96F0"/>
<path d="M29.9365 95.8603C36.5102 88.8502 50 72.7228 50 58.3334C50 44.3156 39.0178 33.3334 25 33.3334C10.9822 33.3334 0 44.3156 0 58.3334C0 76.8129 22.2789 98.2056 23.524 99.3861C23.524 99.3861 23.5291 99.3912 23.5314 99.3935C23.5383 99.4 23.5645 99.4254 23.5699 99.4304C23.6561 99.5123 23.7635 99.5502 23.859 99.6142C23.9771 99.6939 24.084 99.7879 24.2178 99.8424C24.4688 99.9443 24.7332 100 25 100C26.5178 100 27.9602 99.947 29.3273 99.8433C30.4748 99.7558 31.3354 98.7568 31.2479 97.6094C31.1854 96.7883 30.6539 96.1478 29.9365 95.8603ZM25 70.8334C18.107 70.8334 12.5 65.2263 12.5 58.3334C12.5 51.4404 18.107 45.8334 25 45.8334C31.893 45.8334 37.5 51.4404 37.5 58.3334C37.5 65.2261 31.893 70.8334 25 70.8334Z" fill="#5F96F0"/>
</svg>
