<svg width="85" height="85" viewBox="0 0 85 85" fill="none" xmlns="http://www.w3.org/2000/svg">
<path d="M42.5 0C19.0647 0 0 19.0647 0 42.5C0 65.9353 19.0647 85 42.5 85C65.9353 85 85 65.9353 85 42.5C85 19.0647 65.9353 0 42.5 0ZM55.629 45.004L37.9206 62.7122C37.23 63.4029 36.3234 63.75 35.4166 63.75C34.51 63.75 33.6032 63.4029 32.9126 62.7122C31.5279 61.3275 31.5279 59.0891 32.9126 57.7044L48.1171 42.5L32.9128 27.2956C31.528 25.9109 31.528 23.6725 32.9128 22.2878C34.2975 20.903 36.5359 20.903 37.9206 22.2878L55.629 39.9962C57.0138 41.3809 57.0138 43.6191 55.629 45.004Z" fill="#5F96F0"/>
</svg>
