<svg width="45" height="45" viewBox="0 0 45 45" fill="none" xmlns="http://www.w3.org/2000/svg">
<path d="M40.957 1.31836C40.957 0.590273 40.3668 0 39.6387 0H37.002C36.2739 0 35.6836 0.590273 35.6836 1.31836V22.1484H40.957V1.31836Z" fill="#5F96F0"/>
<path d="M30.4102 5.71289C30.4102 4.9848 29.8199 4.39453 29.0918 4.39453H26.4551C25.727 4.39453 25.1367 4.9848 25.1367 5.71289V22.1484H30.4102V5.71289Z" fill="#5F96F0"/>
<path d="M19.8633 10.1074C19.8633 9.37934 19.273 8.78906 18.5449 8.78906H15.9082C15.1801 8.78906 14.5898 9.37934 14.5898 10.1074V22.1484H19.8633V10.1074Z" fill="#5F96F0"/>
<path d="M9.31641 14.502C9.31641 13.7739 8.72613 13.1836 7.99805 13.1836H5.36133C4.63324 13.1836 4.04297 13.7739 4.04297 14.502V22.1484H9.31641V14.502Z" fill="#5F96F0"/>
<path d="M41.0449 24.7852H3.95508C1.77425 24.7852 0 26.5594 0 28.7402V41.0449C0 43.2258 1.77425 45 3.95508 45H41.0449C43.2258 45 45 43.2258 45 41.0449V28.7402C45 26.5594 43.2258 24.7852 41.0449 24.7852ZM19.5247 37.9718H19.3797C19.3738 38.7659 19.3685 39.4058 19.3656 39.7361C19.3604 40.3395 18.8694 40.8252 18.2672 40.8253C18.2639 40.8253 18.2609 40.8253 18.2576 40.8253C17.6509 40.82 17.1632 40.324 17.1684 39.7172C17.173 39.1823 17.1777 38.5896 17.1823 37.9719H13.4536C13.0649 37.9719 12.7051 37.7665 12.5075 37.4318C12.3099 37.097 12.3039 36.6829 12.4916 36.3425C13.2569 34.9553 15.7967 30.3769 16.3468 29.7018C16.8551 29.078 17.5475 28.8257 18.1992 29.0277C18.8555 29.2309 19.3213 29.8629 19.3859 30.6374C19.4146 30.9817 19.4077 33.4579 19.3943 35.7745H19.5246C20.1313 35.7745 20.6233 36.2664 20.6233 36.8731C20.6233 37.4798 20.1315 37.9718 19.5247 37.9718ZM28.5159 40.8252C25.2446 40.8252 22.5833 38.1639 22.5833 34.8926C22.5833 31.6213 25.2446 28.96 28.5159 28.96C29.7047 28.96 30.8521 29.3106 31.8337 29.9739C32.3365 30.3136 32.4687 30.9966 32.1289 31.4992C31.7893 32.0019 31.1064 32.1342 30.6036 31.7944C29.9865 31.3775 29.2647 31.1571 28.5159 31.1571C26.4562 31.1571 24.7806 32.8328 24.7806 34.8925C24.7806 36.9522 26.4562 38.6278 28.5159 38.6278C30.3104 38.6278 31.1892 37.3698 31.4785 35.9911H29.7968C29.1901 35.9911 28.6981 35.4992 28.6981 34.8925C28.6981 34.2858 29.1901 33.7939 29.7968 33.7939H32.6889C33.2956 33.7939 33.7875 34.2858 33.7875 34.8925C33.7876 38.3857 31.6199 40.8252 28.5159 40.8252Z" fill="#5F96F0"/>
<path d="M17.1969 35.7744C17.2039 34.5461 17.209 33.3623 17.2095 32.4558C16.6972 33.3325 16.0179 34.5278 15.3208 35.7744H17.1969Z" fill="#5F96F0"/>
</svg>
