<svg width="45" height="45" viewBox="0 0 45 45" fill="none" xmlns="http://www.w3.org/2000/svg">
<g clip-path="url(#clip0)">
<path d="M5.1045 37.5696L0.481728 42.1923C-0.160576 42.8346 -0.160576 43.876 0.481728 44.5182C1.12403 45.1605 2.16536 45.1605 2.80757 44.5182L7.43035 39.8954C6.36863 39.4722 5.52761 38.6312 5.1045 37.5696Z" fill="#5F96F0"/>
<path d="M41.9658 3.41863L41.9243 3.07568L41.5814 3.03419C38.8178 2.69959 35.6112 3.98174 33.2128 6.38018C30.8146 8.77871 29.5325 11.9853 29.8669 14.7488L29.9084 15.0917L30.2513 15.1332C30.5419 15.1684 30.8375 15.1857 31.1364 15.1857C33.6803 15.1857 36.4737 13.9333 38.6198 11.7871C41.0182 9.38876 42.3003 6.18208 41.9658 3.41863Z" fill="#5F96F0"/>
<path d="M30.2165 0.391025C29.6952 -0.130342 28.8501 -0.130342 28.3288 0.391025L24.3394 4.38055C22.2562 5.91617 20.7533 8.66398 20.3552 11.7391C19.9198 15.1028 20.862 18.4254 22.814 20.4098L23.0562 20.6562L23.3532 20.4797C25.7461 19.0575 27.5031 16.0844 27.9385 12.7207C28.2658 10.1916 27.8143 7.68602 26.7405 5.75472L30.2165 2.27874C30.7378 1.75746 30.7378 0.912303 30.2165 0.391025Z" fill="#5F96F0"/>
<path d="M9.38696 20.1428L9.14474 19.8965L8.84776 20.073C6.45485 21.4951 4.69784 24.4682 4.26243 27.832C3.82702 31.1959 4.7692 34.5182 6.72125 36.5028L6.96347 36.7491L7.26046 36.5726C9.65336 35.1503 11.4104 32.1773 11.8457 28.8135C12.2811 25.4498 11.339 22.1272 9.38696 20.1428Z" fill="#5F96F0"/>
<path d="M17.4338 12.0956L17.1916 11.8494L16.8946 12.0258C14.5017 13.448 12.7447 16.4211 12.3093 19.7849C11.8739 23.1487 12.8161 26.4712 14.7681 28.4557L15.0104 28.7019L15.3073 28.5255C17.7002 27.1032 19.4573 24.1301 19.8926 20.7664C20.328 17.4026 19.3859 14.0801 17.4338 12.0956Z" fill="#5F96F0"/>
<path d="M24.8573 35.613C22.8727 33.661 19.55 32.7189 16.1865 33.1542C12.8228 33.5897 9.84962 35.3467 8.42746 37.7396L8.25098 38.0366L8.49725 38.2788C10.1613 39.9156 12.766 40.8423 15.5469 40.8423C16.0825 40.8423 16.6248 40.8078 17.168 40.7375C20.5318 40.3021 23.5049 38.5452 24.927 36.1522L25.1035 35.8552L24.8573 35.613Z" fill="#5F96F0"/>
<path d="M32.9041 27.5663C30.9196 25.6142 27.5967 24.6719 24.2334 25.1074C20.8696 25.5428 17.8965 27.2999 16.4743 29.6928L16.2979 29.9898L16.5441 30.232C18.2082 31.8688 20.8129 32.7955 23.5938 32.7955C24.1294 32.7955 24.6717 32.7611 25.2149 32.6908C28.5787 32.2554 31.5518 30.4985 32.9739 28.1055L33.1504 27.8085L32.9041 27.5663Z" fill="#5F96F0"/>
<path d="M44.6089 14.7836C44.0876 14.2622 43.2425 14.2622 42.7212 14.7836L39.2452 18.2596C37.3138 17.1857 34.8081 16.7341 32.2793 17.0615C28.9155 17.4969 25.9424 19.254 24.5202 21.6469L24.3438 21.9438L24.59 22.1861C26.254 23.8228 28.8588 24.7496 31.6397 24.7496C32.1753 24.7496 32.7176 24.7152 33.2608 24.6449C36.336 24.2468 39.0839 22.7439 40.6195 20.6606L44.6088 16.6713C45.1302 16.15 45.1302 15.3049 44.6089 14.7836Z" fill="#5F96F0"/>
</g>
<defs>
<clipPath id="clip0">
<rect width="45" height="45" fill="white"/>
</clipPath>
</defs>
</svg>
