<svg width="45" height="45" viewBox="0 0 45 45" fill="none" xmlns="http://www.w3.org/2000/svg">
<path d="M17.6906 24.9476C17.1492 22.9191 16.875 20.8245 16.875 18.7228V15.4688H8.4375V17.5781H13.3594V18.9844H8.42906C8.42414 19.4541 8.40937 19.923 8.37703 20.3906H14.7656V21.7969H8.23922C8.10281 22.8593 7.8982 23.9119 7.62188 24.9476L1.40625 43.5938H22.2877L17.6906 24.9476Z" fill="#5F96F0"/>
<path d="M34.9075 35.8594L31.7575 24.9616C31.2119 22.9191 30.9377 20.8245 30.9377 18.7228V16.875H23.9064V18.2812H28.1252V19.6875H23.8748C23.8558 20.1572 23.8227 20.6262 23.777 21.0938H29.5314V22.5H23.597C23.467 23.3234 23.3059 24.1418 23.0908 24.9476L21.0391 32.0449L22.0558 35.8594H34.9075Z" fill="#5F96F0"/>
<path d="M43.5938 39.375L40.0781 37.2656L36.5625 39.375V43.5938H43.5938V39.375Z" fill="#5F96F0"/>
<path d="M15.4686 13.3594V11.9123C15.4686 11.1234 15.8891 10.362 16.6063 10.0322C17.4036 9.66586 18.291 9.8529 18.864 10.4259L19.6564 11.2184C20.207 11.7689 21.0416 11.9806 21.7581 11.6761C22.8296 11.2212 23.6277 10.2481 23.8428 9.07172C24.6001 9.67219 25.5957 9.98227 26.6813 9.77555C25.8292 10.7712 25.3124 12.0614 25.3124 13.4754V16.1719H29.5311V13.8108C29.5311 12.8911 30.1928 12.0537 31.1075 11.9623C32.1601 11.8568 33.0467 12.6802 33.0467 13.7109V13.9113C33.0467 15.6122 34.1844 17.183 35.8536 17.5085C38.1057 17.9487 40.078 16.2359 40.078 14.0625C40.078 14.0168 40.066 13.9746 40.0646 13.9289C40.6609 14.1455 41.3591 14.1518 42.1466 13.5373C42.6282 13.1611 42.8905 12.5648 42.8905 11.9531V4.33477C42.8905 3.20133 42.0474 2.18391 40.9154 2.1136C39.9036 2.05032 39.0444 2.70493 38.7702 3.61336C38.1655 3.12047 37.404 2.81251 36.5624 2.81251C34.621 2.81251 33.0467 4.3868 33.0467 6.32813C32.1137 6.32813 31.3311 6.93844 31.0527 7.77797C30.3376 7.77235 29.6556 7.90454 29.0242 8.14008C29.2274 7.8054 29.3821 7.43907 29.4601 7.04672C29.9066 4.7904 28.1924 2.81251 26.0155 2.81251C24.2914 2.81251 22.8634 4.05563 22.5639 5.69391C22.5076 5.64891 22.4436 5.61446 22.3846 5.57297C22.0527 4.38891 20.9769 3.51563 19.6874 3.51563C18.4843 3.51563 17.4648 4.27501 17.0633 5.33743L16.8299 5.36696C16.8531 5.22141 16.8749 5.07446 16.8749 4.92188C16.8749 3.36868 15.6156 2.10938 14.0624 2.10938C12.7292 2.10938 11.6183 3.03961 11.3286 4.28485C11.3019 4.26376 11.2773 4.23915 11.2499 4.21876L11.2639 4.24618C10.487 3.65274 9.47026 3.35813 8.36705 3.60141C7.03604 3.89532 5.96166 4.97461 5.69659 6.31126C5.34502 8.08243 6.32588 9.68204 7.81651 10.2888C8.62018 10.6165 9.14049 11.4033 9.14049 12.2709V13.3594H15.4686Z" fill="#5F96F0"/>
<path d="M34.4532 43.5938V39.375L37.9688 37.2656H22.4312L23.7432 43.5938H34.4532Z" fill="#5F96F0"/>
</svg>
