<svg width="45" height="45" viewBox="0 0 45 45" fill="none" xmlns="http://www.w3.org/2000/svg">
<g clip-path="url(#clip0)">
<path d="M13.1808 29.4341C14.0934 30.1019 15.4176 30.1019 16.3301 29.4341L16.3796 29.3977V18.4011H28.4941V29.3496L28.6094 29.4341C29.522 30.1019 30.8462 30.1022 31.7587 29.4341L34.768 27.2306C35.4965 26.6971 36.3397 26.3754 37.2066 26.2638V18.4546L40.0692 21.3107L41.9293 19.4461L22.4368 0L2.94434 19.4461L4.80446 21.3107L7.66708 18.4546V26.2549C8.55732 26.3586 9.42455 26.6837 10.1716 27.2306L13.1808 29.4341Z" fill="#5F96F0"/>
<path d="M10.1716 36.0612L13.1808 38.2647C14.0934 38.9325 15.4176 38.9325 16.3301 38.2647L19.3393 36.0612C21.1826 34.7116 23.7569 34.7116 25.6002 36.0612L28.6094 38.2647C29.5219 38.9328 30.8461 38.9328 31.7587 38.2647L34.7679 36.0612C36.6112 34.712 39.1858 34.7116 41.0287 36.0612L44.9395 38.9249V33.1382L44.8348 33.2814L39.4728 29.3558C38.5606 28.6877 37.236 28.6877 36.3238 29.3558L33.3143 31.5593C31.4713 32.9085 28.8967 32.9085 27.0538 31.5593L24.0442 29.3558C23.132 28.6877 21.8075 28.6881 20.8953 29.3558L17.8857 31.5593C16.0424 32.9089 13.4682 32.9085 11.6252 31.5593L8.61567 29.3558C7.70346 28.6881 6.37892 28.6881 5.46672 29.3558L0.105057 33.2814L0 33.1382V38.9246L3.91078 36.0612C5.75408 34.712 8.32831 34.712 10.1716 36.0612Z" fill="#5F96F0"/>
<path d="M39.4728 38.1861C38.5602 37.5184 37.236 37.5184 36.3238 38.1861L33.3143 40.3896C31.4713 41.7392 28.8967 41.7392 27.0534 40.3896L24.0442 38.1861C23.1317 37.5184 21.8075 37.5184 20.8949 38.1861L17.8857 40.3896C16.0424 41.7392 13.4682 41.7392 11.6249 40.3896L8.61567 38.1861C7.70346 37.5184 6.37892 37.5184 5.46637 38.1861L0.105057 42.112L0 41.9688V45H44.9395V41.9688L44.8344 42.112L39.4728 38.1861Z" fill="#5F96F0"/>
<path d="M25.6002 27.2306L25.8604 27.4212V21.0347H19.0132V27.4696L19.3393 27.2306C21.1826 25.881 23.7569 25.881 25.6002 27.2306Z" fill="#5F96F0"/>
</g>
<defs>
<clipPath id="clip0">
<rect width="45" height="45" fill="white"/>
</clipPath>
</defs>
</svg>
