<svg width="45" height="45" viewBox="0 0 45 45" fill="none" xmlns="http://www.w3.org/2000/svg">
<path d="M2.21626 17.2188L0 44.9216H13.0095L10.0546 17.2188H2.21626Z" fill="#5F96F0"/>
<path d="M2.74462 10.6169L2.42773 14.578H9.77314L9.35062 10.6169H2.74462Z" fill="#5F96F0"/>
<path d="M41.3846 18.5391L34.313 27.088V18.5391H30.7001L23.2458 27.4996V18.5391H19.6292L13.6279 25.8241L14.5409 34.3833H18.5926V37.024H14.8226L15.6676 44.9462H44.9997V18.5391H41.3846ZM26.5147 37.024H21.2333V34.3833H26.5147V37.024ZM34.4368 37.024H29.1554V34.3833H34.4368V37.024ZM42.359 37.024H37.0775V34.3833H42.359V37.024Z" fill="#5F96F0"/>
<path d="M11.7245 7.97609L12.6135 16.3101C13.9829 16.1879 15.2876 15.666 16.3614 14.817C17.567 15.5195 18.9496 15.8982 20.3534 15.8982C22.538 15.8982 24.6066 14.9959 26.0909 13.4372C27.04 13.8981 28.0806 14.1377 29.1557 14.1377C30.7033 14.1377 32.2053 13.6221 33.4237 12.695C34.4416 13.3473 35.6264 13.6976 36.8578 13.6976C40.3767 13.6976 43.2395 10.8348 43.2395 7.31591C43.2395 3.79699 40.3767 0.934192 36.8578 0.934192C35.7601 0.934192 34.6863 1.21842 33.7393 1.74912C32.4727 0.660878 30.8564 0.0539551 29.1557 0.0539551C27.6122 0.0539551 26.1151 0.566253 24.8989 1.48795C23.5747 0.55657 21.9986 0.0539551 20.3534 0.0539551C18.0754 0.0539551 15.9394 1.02486 14.4469 2.69704C13.6643 2.40568 12.8318 2.25455 11.9911 2.25455C8.55961 2.25455 5.69515 4.72238 5.0752 7.97609H11.7245Z" fill="#5F96F0"/>
</svg>
