<svg width="45" height="45" viewBox="0 0 45 45" fill="none" xmlns="http://www.w3.org/2000/svg">
<path d="M44.25 43.1282H43.1851L35.1638 29.0905C34.5601 28.0345 33.4298 27.3782 32.2133 27.3782H30.7523C29.8515 27.3782 28.9695 27.2086 28.1334 26.8734L27.2934 26.5374C26.4129 26.1857 25.4934 25.9802 24.5544 25.9104C24.7689 25.5182 25.0133 25.0352 25.2654 24.4704C26.0597 23.6904 27.0849 23.3604 28.4769 22.9366C29.9522 23.5966 31.2924 23.9409 32.4737 23.9409C33.1719 23.9409 33.8162 23.8254 34.4049 23.5944C36.3676 22.8234 37.0898 21.0204 37.3613 20.3417C37.3868 20.2794 37.4063 20.2277 37.4236 20.1909C37.5946 19.8174 37.4258 19.3727 37.0546 19.1971L36.9241 19.1289C34.8316 18.0083 32.9551 17.7143 31.3426 18.2581C29.9281 18.7351 28.7918 19.8399 27.9548 21.5281C27.2956 21.7291 26.6926 21.9218 26.1368 22.1566C26.3544 21.4583 26.5486 20.7039 26.697 19.8991C26.7143 19.8526 26.7398 19.8091 26.748 19.7589C26.7555 19.7124 26.7457 19.6674 26.7442 19.6209C26.9633 18.3256 27.0584 16.9141 26.943 15.4276C27.8452 15.5971 28.6995 15.6841 29.5012 15.6841C31.2127 15.6841 32.6932 15.2978 33.9254 14.5268C35.7134 13.4071 36.8977 11.5298 37.4459 8.94682L37.4774 8.80057C37.5231 8.60703 37.4894 8.40304 37.3851 8.23429C37.28 8.06475 37.1121 7.94407 36.9193 7.89828C36.0523 7.69499 29.1643 6.28426 26.2588 11.8793C25.9078 10.764 25.4106 9.6285 24.7446 8.48777C24.7161 6.08027 23.9878 4.15353 22.568 2.766C21.4018 1.62527 19.1631 0.279748 15.122 0.376515L14.9998 0.378801C14.5858 0.378801 14.2498 0.714806 14.2498 1.12877L14.2468 1.28179C14.2258 2.16307 14.1613 4.84505 16.2013 6.90907C17.7846 8.51185 20.2498 9.33529 23.5236 9.37282C24.5376 11.1429 25.1083 12.8903 25.3633 14.5493C25.3648 14.5643 25.3626 14.5786 25.3648 14.5935C25.3663 14.6048 25.3708 14.6145 25.3731 14.6258C25.4781 15.3308 25.5268 16.02 25.5313 16.6883C25.0926 16.0846 24.5653 15.5835 23.9406 15.2025C22.3731 14.2471 20.2206 14.052 17.8777 14.6572L17.8139 14.6738C17.4164 14.7705 17.1697 15.1688 17.2604 15.5685L17.2829 15.675C17.4321 16.401 17.8859 18.6083 19.9281 19.884C20.8672 20.4705 21.9974 20.7638 23.3069 20.7638C23.8597 20.7638 24.4477 20.7053 25.0627 20.601C24.7792 21.7665 24.4027 22.7933 24.0292 23.6408C24.0022 23.6888 23.9797 23.7361 23.9647 23.7879C23.5222 24.7689 23.0955 25.4896 22.8487 25.8781H22.1662C21.1845 25.8781 20.262 26.4008 19.7572 27.2416L18.3255 29.6281H16.0222C15.1402 29.6281 14.3084 30.0564 13.7955 30.7741L11.694 33.7156C11.1742 34.4431 10.3298 34.8782 9.43576 34.8782C7.96579 34.8782 6.61729 35.6184 5.82829 36.8589L1.83832 43.1282H0.749971C0.336006 43.1282 0 43.4642 0 43.8782C0 44.2921 0.336006 44.6281 0.749971 44.6281H2.25H42.75H44.25C44.664 44.6281 45 44.2921 45 43.8782C45 43.4642 44.664 43.1282 44.25 43.1282Z" fill="#5F96F0"/>
</svg>
