<svg width="30" height="30" viewBox="0 0 30 30" fill="none" xmlns="http://www.w3.org/2000/svg">
<g clip-path="url(#clip0)">
<path d="M29.9706 14.5613C29.9706 12.0432 28.1525 9.94146 25.7596 9.50053C25.8352 5.79967 22.2356 2.93659 18.545 4.03506C17.4276 1.6697 15.0322 0 12.193 0C8.41053 0 5.31699 3.00817 5.18014 6.75785C2.19589 7.40744 0.0292969 10.0592 0.0292969 13.1578C0.0292969 16.7695 2.96729 19.7075 6.57897 19.7075H24.8245C27.6619 19.7075 29.9706 17.3987 29.9706 14.5613Z" fill="#5F96F0"/>
<path d="M20.5646 21.2095C20.1025 20.9785 19.5403 21.1657 19.3093 21.628L17.4379 25.3706C17.1247 25.9971 17.5865 26.725 18.2741 26.725C18.6173 26.725 18.9478 26.5354 19.1117 26.2075L20.983 22.4649C21.2141 22.0027 21.0268 21.4406 20.5646 21.2095Z" fill="#5F96F0"/>
<path d="M28.9855 21.2095C28.5233 20.9785 27.9612 21.1657 27.7302 21.628L25.8588 25.3706C25.5456 25.9971 26.0074 26.725 26.695 26.725C27.0382 26.725 27.3687 26.5354 27.5326 26.2075L29.4039 22.4649C29.635 22.0027 29.4477 21.4406 28.9855 21.2095Z" fill="#5F96F0"/>
<path d="M12.1432 21.2095C11.6811 20.9785 11.1189 21.1657 10.8879 21.628L9.01655 25.3706C8.70333 25.9971 9.16509 26.725 9.85274 26.725C10.196 26.725 10.5264 26.5354 10.6903 26.2075L12.5617 22.4649C12.7927 22.0027 12.6054 21.4406 12.1432 21.2095Z" fill="#5F96F0"/>
<path d="M3.7223 21.2095C3.2602 20.9785 2.69804 21.1657 2.46699 21.628L0.59565 25.3706C0.282435 25.9971 0.744187 26.725 1.43184 26.725C1.77506 26.725 2.10553 26.5354 2.26944 26.2075L4.14078 22.4649C4.37183 22.0027 4.18452 21.4406 3.7223 21.2095Z" fill="#5F96F0"/>
<path d="M14.9503 24.4844C14.4882 24.2533 13.9261 24.4407 13.695 24.9029L11.8237 28.6455C11.5105 29.272 11.9722 29.9999 12.6599 29.9999C13.0031 29.9999 13.3336 29.8103 13.4975 29.4824L15.3688 25.7398C15.5998 25.2776 15.4125 24.7155 14.9503 24.4844Z" fill="#5F96F0"/>
<path d="M23.3717 24.4844C22.9095 24.2533 22.3474 24.4407 22.1164 24.9029L20.2451 28.6455C19.9319 29.272 20.3936 29.9999 21.0813 29.9999C21.4245 29.9999 21.7549 29.8103 21.9188 29.4824L23.7902 25.7398C24.0212 25.2776 23.8339 24.7155 23.3717 24.4844Z" fill="#5F96F0"/>
<path d="M6.52943 24.4844C6.06727 24.2533 5.50517 24.4407 5.27411 24.9029L3.40278 28.6455C3.08956 29.272 3.55132 29.9999 4.23897 29.9999C4.58219 29.9999 4.91265 29.8103 5.07657 29.4824L6.94791 25.7398C7.17896 25.2776 6.99165 24.7155 6.52943 24.4844Z" fill="#5F96F0"/>
</g>
<defs>
<clipPath id="clip0">
<rect width="30" height="30" fill="white"/>
</clipPath>
</defs>
</svg>
