<svg width="30" height="30" viewBox="0 0 30 30" fill="none" xmlns="http://www.w3.org/2000/svg">
<path d="M14.9998 7.48608C10.8565 7.48608 7.48584 10.8574 7.48584 15.0007C7.48584 19.144 10.8565 22.5153 14.9998 22.5153C19.1424 22.5153 22.5137 19.1446 22.5137 15.0007C22.5137 10.8568 19.1424 7.48608 14.9998 7.48608Z" fill="#ECD146"/>
<path d="M14.9998 5.27724C14.19 5.27724 13.5337 4.6209 13.5337 3.81178V1.46612C13.5337 0.656333 14.19 0 14.9998 0C15.8096 0 16.4659 0.656333 16.4659 1.46612V3.81178C16.4659 4.6209 15.8089 5.27724 14.9998 5.27724Z" fill="#ECD146"/>
<path d="M14.9998 24.7222C14.19 24.7222 13.5337 25.3785 13.5337 26.1883V28.5333C13.5337 29.3437 14.19 30.0001 14.9998 30.0001C15.8096 30.0001 16.4659 29.3437 16.4659 28.5333V26.1883C16.4659 25.3785 15.8089 24.7222 14.9998 24.7222Z" fill="#ECD146"/>
<path d="M21.8743 8.12503C21.3023 7.5524 21.3023 6.62436 21.8743 6.05173L23.5331 4.39296C24.105 3.821 25.0337 3.821 25.6063 4.39296C26.179 4.96559 26.179 5.89429 25.6063 6.46626L23.9476 8.12503C23.3756 8.69766 22.4476 8.69766 21.8743 8.12503Z" fill="#ECD146"/>
<path d="M8.12515 21.8755C7.55252 21.3022 6.62449 21.3022 6.05186 21.8755L4.39309 23.5336C3.82112 24.1056 3.82046 25.035 4.39309 25.6069C4.96572 26.1789 5.89442 26.1789 6.46639 25.6069L8.12515 23.9475C8.69778 23.3755 8.69778 22.4468 8.12515 21.8755Z" fill="#ECD146"/>
<path d="M24.7222 15C24.7222 14.1902 25.3785 13.5339 26.1883 13.5339H28.5339C29.3437 13.5339 30.0001 14.1902 30.0001 15C30.0001 15.8098 29.3437 16.4655 28.5339 16.4655H26.1883C25.3785 16.4655 24.7222 15.8098 24.7222 15Z" fill="#ECD146"/>
<path d="M5.27724 15C5.27724 14.1902 4.6209 13.5339 3.81112 13.5339H1.46612C0.656333 13.5339 0 14.1902 0 15C0 15.8098 0.656333 16.4655 1.46612 16.4655H3.81178C4.6209 16.4655 5.27724 15.8098 5.27724 15Z" fill="#ECD146"/>
<path d="M21.8743 21.8755C22.4469 21.3035 23.3756 21.3035 23.9476 21.8755L25.6064 23.5343C26.179 24.1056 26.179 25.0349 25.6064 25.6069C25.0337 26.1789 24.1057 26.1789 23.5331 25.6069L21.8743 23.9481C21.3017 23.3755 21.3017 22.4475 21.8743 21.8755Z" fill="#ECD146"/>
<path d="M8.12492 8.12511C8.69755 7.55247 8.69755 6.62444 8.12492 6.05181L6.46615 4.39371C5.89352 3.82108 4.96548 3.82108 4.39285 4.39371C3.82022 4.96567 3.82022 5.89437 4.39285 6.46634L6.05162 8.12511C6.62425 8.6984 7.55229 8.6984 8.12492 8.12511Z" fill="#ECD146"/>
</svg>
