<svg width="421" height="71" viewBox="0 0 421 71" fill="none" xmlns="http://www.w3.org/2000/svg">
<path d="M85.712 20.728L94.448 42.308L102.664 20.728H111.608L94.136 60.768L76.664 20.728H85.712ZM117.033 36.276H124.313V59H117.033V36.276ZM116.877 28.216C116.877 27.1413 117.293 26.2573 118.125 25.564C118.992 24.8707 119.91 24.524 120.881 24.524C121.852 24.524 122.736 24.8707 123.533 25.564C124.365 26.2573 124.781 27.1413 124.781 28.216C124.781 29.2907 124.365 30.1747 123.533 30.868C122.736 31.5267 121.852 31.856 120.881 31.856C119.91 31.856 118.992 31.5267 118.125 30.868C117.293 30.1747 116.877 29.2907 116.877 28.216ZM131.81 17.972H139.09V59H131.81V17.972ZM146.588 17.972H153.868V59H146.588V17.972ZM172.545 59.624C169.772 59.624 167.414 59.104 165.473 58.064C163.566 57.024 162.11 55.5853 161.105 53.748C160.1 51.9107 159.597 49.796 159.597 47.404C159.597 45.116 160.186 43.0533 161.365 41.216C162.544 39.3787 164.121 37.9227 166.097 36.848C168.073 35.7387 170.274 35.184 172.701 35.184C175.96 35.184 178.629 36.1373 180.709 38.044C182.824 39.916 184.193 42.6373 184.817 46.208L168.177 51.512C169.286 52.7947 170.794 53.436 172.701 53.436C173.498 53.436 174.261 53.2973 174.989 53.02C175.752 52.7427 176.497 52.3787 177.225 51.928L180.449 57.336C179.236 58.0293 177.918 58.584 176.497 59C175.11 59.416 173.793 59.624 172.545 59.624ZM166.773 46.988C166.773 47.1613 166.773 47.3173 166.773 47.456L176.757 44.076C176.445 43.2093 175.942 42.464 175.249 41.84C174.556 41.1813 173.516 40.852 172.129 40.852C170.5 40.852 169.2 41.4067 168.229 42.516C167.258 43.6253 166.773 45.116 166.773 46.988ZM216.273 59.624C214.159 59.624 212.269 59.1387 210.605 58.168C208.941 57.1627 207.624 55.724 206.653 53.852C205.717 51.98 205.249 49.7613 205.249 47.196C205.249 44.6307 205.769 42.4467 206.809 40.644C207.849 38.8413 209.271 37.472 211.073 36.536C212.876 35.6 214.921 35.132 217.209 35.132C218.665 35.132 220.052 35.3573 221.369 35.808C222.721 36.2587 223.848 36.952 224.749 37.888V17.972H231.977V59H224.697V56.608C223.588 57.4747 222.34 58.2027 220.953 58.792C219.567 59.3467 218.007 59.624 216.273 59.624ZM218.665 53.488C220.121 53.488 221.335 53.2107 222.305 52.656C223.276 52.0667 224.073 51.2 224.697 50.056V44.492C224.281 43.3827 223.536 42.4987 222.461 41.84C221.387 41.1813 220.121 40.852 218.665 40.852C217.591 40.852 216.585 41.1293 215.649 41.684C214.748 42.204 214.02 42.932 213.465 43.868C212.911 44.804 212.633 45.8787 212.633 47.092C212.633 48.3053 212.911 49.3973 213.465 50.368C214.02 51.3387 214.748 52.1013 215.649 52.656C216.585 53.2107 217.591 53.488 218.665 53.488ZM250.647 59.624C247.873 59.624 245.516 59.104 243.575 58.064C241.668 57.024 240.212 55.5853 239.207 53.748C238.201 51.9107 237.699 49.796 237.699 47.404C237.699 45.116 238.288 43.0533 239.467 41.216C240.645 39.3787 242.223 37.9227 244.199 36.848C246.175 35.7387 248.376 35.184 250.803 35.184C254.061 35.184 256.731 36.1373 258.811 38.044C260.925 39.916 262.295 42.6373 262.919 46.208L246.279 51.512C247.388 52.7947 248.896 53.436 250.803 53.436C251.6 53.436 252.363 53.2973 253.091 53.02C253.853 52.7427 254.599 52.3787 255.327 51.928L258.551 57.336C257.337 58.0293 256.02 58.584 254.599 59C253.212 59.416 251.895 59.624 250.647 59.624ZM244.875 46.988C244.875 47.1613 244.875 47.3173 244.875 47.456L254.859 44.076C254.547 43.2093 254.044 42.464 253.351 41.84C252.657 41.1813 251.617 40.852 250.231 40.852C248.601 40.852 247.301 41.4067 246.331 42.516C245.36 43.6253 244.875 45.116 244.875 46.988ZM297.911 20.728C302.73 20.728 306.422 21.9067 308.987 24.264C311.587 26.5867 312.887 29.7067 312.887 33.624C312.887 35.808 312.419 37.9573 311.483 40.072C310.582 42.1867 309.039 43.868 306.855 45.116L315.747 59H306.959L298.899 46.832H293.855V59H286.315V20.728H297.911ZM299.211 39.552C300.736 39.552 301.915 39.24 302.747 38.616C303.614 37.9573 304.22 37.1947 304.567 36.328C304.914 35.4267 305.087 34.612 305.087 33.884C305.087 33.468 305.018 32.948 304.879 32.324C304.775 31.6653 304.532 31.0067 304.151 30.348C303.77 29.6893 303.18 29.1347 302.383 28.684C301.62 28.2333 300.58 28.008 299.263 28.008H293.855V39.552H299.211ZM330.932 59.624C328.158 59.624 325.801 59.104 323.86 58.064C321.953 57.024 320.497 55.5853 319.492 53.748C318.486 51.9107 317.984 49.796 317.984 47.404C317.984 45.116 318.573 43.0533 319.752 41.216C320.93 39.3787 322.508 37.9227 324.484 36.848C326.46 35.7387 328.661 35.184 331.088 35.184C334.346 35.184 337.016 36.1373 339.096 38.044C341.21 39.916 342.58 42.6373 343.204 46.208L326.564 51.512C327.673 52.7947 329.181 53.436 331.088 53.436C331.885 53.436 332.648 53.2973 333.376 53.02C334.138 52.7427 334.884 52.3787 335.612 51.928L338.836 57.336C337.622 58.0293 336.305 58.584 334.884 59C333.497 59.416 332.18 59.624 330.932 59.624ZM325.16 46.988C325.16 47.1613 325.16 47.3173 325.16 47.456L335.144 44.076C334.832 43.2093 334.329 42.464 333.636 41.84C332.942 41.1813 331.902 40.852 330.516 40.852C328.886 40.852 327.586 41.4067 326.616 42.516C325.645 43.6253 325.16 45.116 325.16 46.988ZM357.878 59.468L344.254 36.276H352.886L358.19 47.092L362.87 36.276H370.982L358.086 59.468H357.878ZM385.674 59.624C382.901 59.624 380.543 59.104 378.602 58.064C376.695 57.024 375.239 55.5853 374.234 53.748C373.229 51.9107 372.726 49.796 372.726 47.404C372.726 45.116 373.315 43.0533 374.494 41.216C375.673 39.3787 377.25 37.9227 379.226 36.848C381.202 35.7387 383.403 35.184 385.83 35.184C389.089 35.184 391.758 36.1373 393.838 38.044C395.953 39.916 397.322 42.6373 397.946 46.208L381.306 51.512C382.415 52.7947 383.923 53.436 385.83 53.436C386.627 53.436 387.39 53.2973 388.118 53.02C388.881 52.7427 389.626 52.3787 390.354 51.928L393.578 57.336C392.365 58.0293 391.047 58.584 389.626 59C388.239 59.416 386.922 59.624 385.674 59.624ZM379.902 46.988C379.902 47.1613 379.902 47.3173 379.902 47.456L389.886 44.076C389.574 43.2093 389.071 42.464 388.378 41.84C387.685 41.1813 386.645 40.852 385.258 40.852C383.629 40.852 382.329 41.4067 381.358 42.516C380.387 43.6253 379.902 45.116 379.902 46.988Z" fill="#2D4770"/>
<g clip-path="url(#clip0)">
<path d="M35.5 18.6546L10.1782 39.5298C10.1782 39.5593 10.1708 39.6026 10.156 39.6617C10.1415 39.7203 10.1338 39.7629 10.1338 39.7931V60.9315C10.1338 61.6947 10.4128 62.3561 10.9707 62.9131C11.5285 63.4704 12.189 63.7508 12.9524 63.7508H29.8626V46.8396H41.1376V63.7514H58.0477C58.8109 63.7514 59.4723 63.4716 60.0293 62.9131C60.5872 62.3567 60.8672 61.6948 60.8672 60.9315V39.7931C60.8672 39.6759 60.8511 39.5873 60.8227 39.5298L35.5 18.6546Z" fill="#2D4770"/>
<path d="M70.5101 34.7734L60.8663 26.7584V8.79045C60.8663 8.37969 60.7342 8.04188 60.4692 7.7775C60.2064 7.51343 59.8686 7.38139 59.4569 7.38139H51.0016C50.5904 7.38139 50.2528 7.51343 49.9882 7.7775C49.7243 8.04188 49.5924 8.37984 49.5924 8.79045V17.3779L38.8472 8.39372C37.9088 7.63035 36.7929 7.24874 35.501 7.24874C34.2091 7.24874 33.0935 7.63035 32.1541 8.39372L0.489299 34.7734C0.195766 35.0079 0.034885 35.3235 0.00496089 35.7199C-0.024809 36.116 0.0777659 36.462 0.312994 36.7553L3.04334 40.0143C3.27856 40.2784 3.58644 40.4399 3.96821 40.4989C4.32066 40.5286 4.67312 40.4255 5.02558 40.1908L35.5 14.7796L65.9748 40.1906C66.2102 40.3954 66.5179 40.4977 66.8997 40.4977H67.032C67.4132 40.4397 67.7204 40.2771 67.9569 40.0137L70.6875 36.7552C70.9223 36.4612 71.0252 36.1158 70.9946 35.7193C70.9646 35.3239 70.8031 35.0083 70.5101 34.7734Z" fill="#2D4770"/>
</g>
<defs>
<clipPath id="clip0">
<rect width="71" height="71" fill="white"/>
</clipPath>
</defs>
</svg>
