<svg width="52" height="52" viewBox="0 0 52 52" fill="none" xmlns="http://www.w3.org/2000/svg">
<g clip-path="url(#clip0)">
<path d="M40.4457 23.971L17.305 0.830725C16.7698 0.295087 16.0553 0 15.2935 0C14.5317 0 13.8172 0.295087 13.282 0.830725L11.5779 2.53445C10.469 3.64462 10.469 5.44896 11.5779 6.55744L31.0096 25.9892L11.5563 45.4426C11.0211 45.9782 10.7256 46.6922 10.7256 47.4536C10.7256 48.2159 11.0211 48.9299 11.5563 49.466L13.2605 51.1693C13.7961 51.7049 14.5101 52 15.272 52C16.0338 52 16.7482 51.7049 17.2835 51.1693L40.4457 28.0079C40.9822 27.4706 41.2768 26.7531 41.2751 25.9905C41.2768 25.2249 40.9822 24.5079 40.4457 23.971Z" fill="#2D4770"/>
</g>
<defs>
<clipPath id="clip0">
<rect width="52" height="52" fill="white"/>
</clipPath>
</defs>
</svg>
