<svg width="25" height="25" viewBox="0 0 25 25" fill="none" xmlns="http://www.w3.org/2000/svg">
<path d="M12.4995 0C5.59683 0 0 5.59683 0 12.4995C0 19.4021 5.59683 25 12.4995 25C19.4021 25 25 19.4021 25 12.4995C25 5.59683 19.4021 0 12.4995 0ZM15.1016 19.3725C14.4582 19.6265 13.946 19.819 13.5619 19.9524C13.1788 20.0857 12.7333 20.1524 12.2265 20.1524C11.4476 20.1524 10.8413 19.9619 10.4095 19.582C9.97778 19.2021 9.76296 18.7206 9.76296 18.1354C9.76296 17.9079 9.77884 17.6751 9.81058 17.4381C9.84338 17.2011 9.89524 16.9344 9.96614 16.6349L10.7714 13.7905C10.8423 13.5175 10.9037 13.2582 10.9524 13.0169C11.0011 12.7735 11.0243 12.5503 11.0243 12.3471C11.0243 11.9852 10.9492 11.7312 10.8 11.5884C10.6487 11.4455 10.364 11.3757 9.93968 11.3757C9.73227 11.3757 9.51852 11.4063 9.29947 11.4709C9.08254 11.5376 8.89418 11.5979 8.73968 11.6571L8.95238 10.781C9.47936 10.5661 9.98413 10.382 10.4656 10.2296C10.9471 10.0751 11.4021 9.99894 11.8307 9.99894C12.6042 9.99894 13.2011 10.1873 13.6212 10.5598C14.0392 10.9333 14.2497 11.419 14.2497 12.0159C14.2497 12.1397 14.2349 12.3577 14.2063 12.6688C14.1778 12.981 14.1238 13.2656 14.0455 13.527L13.2444 16.363C13.1788 16.5905 13.1206 16.8508 13.0677 17.1418C13.0159 17.4328 12.9905 17.655 12.9905 17.8042C12.9905 18.181 13.0741 18.4381 13.2434 18.5746C13.4106 18.7111 13.7037 18.7799 14.1185 18.7799C14.3143 18.7799 14.5333 18.745 14.781 18.6772C15.0265 18.6095 15.2042 18.5492 15.3164 18.4974L15.1016 19.3725ZM14.9598 7.86137C14.5862 8.20846 14.1365 8.38201 13.6106 8.38201C13.0857 8.38201 12.6328 8.20846 12.2561 7.86137C11.8815 7.51429 11.6921 7.09206 11.6921 6.59894C11.6921 6.10688 11.8825 5.6836 12.2561 5.33333C12.6328 4.98201 13.0857 4.80741 13.6106 4.80741C14.1365 4.80741 14.5873 4.98201 14.9598 5.33333C15.3333 5.6836 15.5206 6.10688 15.5206 6.59894C15.5206 7.09312 15.3333 7.51429 14.9598 7.86137Z" fill="#5F96F0"/>
</svg>
