<svg width="80" height="80" viewBox="0 0 80 80" fill="none" xmlns="http://www.w3.org/2000/svg">
<g clip-path="url(#clip0)">
<path d="M72.9608 33.9943C73.3447 34.2199 73.7164 34.4454 74.0805 34.6704V27.1531C77.1468 26.1656 79.3719 23.2863 79.3719 19.896V9.31322C79.3719 5.10993 75.9522 1.69025 71.7489 1.69025C67.5457 1.69025 64.126 5.10993 64.126 9.31322V19.8962C64.126 23.2865 66.3513 26.1657 69.4174 27.1532V32.0777C70.7108 32.721 71.8935 33.3673 72.9608 33.9943Z" fill="#5F96F0"/>
<path d="M10.5831 32.0776V27.1531C13.6494 26.1656 15.8745 23.2863 15.8745 19.896V9.31322C15.8745 5.10993 12.4548 1.69025 8.25154 1.69025C4.04826 1.69025 0.628418 5.10978 0.628418 9.31322V19.8962C0.628418 23.2865 2.85373 26.1657 5.91982 27.1532V34.6706C6.28389 34.4456 6.65561 34.2199 7.03951 33.9945C8.10686 33.3673 9.28951 32.721 10.5831 32.0776Z" fill="#5F96F0"/>
<path d="M37.6684 25.4356V21.184C37.6684 19.8964 38.7123 18.8524 40 18.8524C41.2876 18.8524 42.3316 19.8964 42.3316 21.184V25.4356C46.1292 25.5574 49.6606 25.9692 52.9145 26.5823V17.7131C53.292 17.906 53.7014 18.0006 54.1084 18.0006C54.9095 18.0006 55.7006 17.6365 56.2183 16.9465C57.0914 15.7824 56.8555 14.131 55.6914 13.2579L41.5808 2.67495C40.6441 1.97229 39.3558 1.97229 38.4191 2.67495L24.3084 13.2579C23.1444 14.131 22.9084 15.7824 23.7814 16.9465C24.562 17.9874 25.9645 18.2835 27.0853 17.7106V26.5823C30.3394 25.9693 33.8708 25.5574 37.6684 25.4356Z" fill="#5F96F0"/>
<path d="M40.0001 47.1605C48.7027 42.0321 58.4649 38.6013 68.8008 37.0072C62.5365 33.6497 52.8368 30.0588 40.0001 30.0588C27.5271 30.0588 17.9337 33.4044 11.2163 37.0099C21.546 38.605 31.3022 42.0349 40.0001 47.1605Z" fill="#5F96F0"/>
<path d="M80.0002 40.6746C67.1179 41.0385 54.8921 44.4085 44.5171 50.0421C49.6332 53.5738 54.1468 57.6546 57.9597 62.206C62.1166 67.1682 65.3468 72.5793 67.5824 78.3099H77.6687C78.9563 78.3099 80.0002 77.266 80.0002 75.9784V40.6746Z" fill="#5F96F0"/>
<path d="M0 51.9198C7.86313 52.3663 15.2881 55.0718 21.5994 59.8134C27.8386 64.5009 32.5986 71.0199 35.1417 78.3099H62.5425C53.112 56.5745 28.1166 41.4688 0 40.6746V51.9198Z" fill="#5F96F0"/>
<path d="M30.1644 78.3098C25.2142 66.0409 13.3841 57.49 0 56.5938V75.9781C0 77.2658 1.04391 78.3097 2.33156 78.3097H30.1644V78.3098Z" fill="#5F96F0"/>
</g>
<defs>
<clipPath id="clip0">
<rect width="80" height="80" fill="white"/>
</clipPath>
</defs>
</svg>
