<svg width="80" height="80" viewBox="0 0 80 80" fill="none" xmlns="http://www.w3.org/2000/svg">
<path d="M0 79.99H14.2313V30.6587L0 34.215V79.99ZM4.6875 40.4462H9.375V52.5118H4.6875V40.4462ZM4.6875 61.0306H9.375V75.3025H4.6875V61.0306Z" fill="#5F96F0"/>
<path d="M65.769 17.7041V79.9901H80.0003V14.1479L65.769 17.7041ZM75.3128 75.3026H70.6253V61.0307H75.3128V75.3026ZM75.3128 53.2479H70.6253V46.8557H75.3128V53.2479ZM75.3128 39.0948H70.6253V27.0291H75.3128V39.0948Z" fill="#5F96F0"/>
<path d="M33.0605 65.7137H37.6562V79.9901H33.0605V65.7137Z" fill="#5F96F0"/>
<path d="M18.9194 79.99H28.373V61.0114H51.6268V79.9899H61.0804V0.0100327L18.9194 14.1924V79.99ZM46.9393 14.5422H51.6268V27.2378H46.9393V14.5422ZM46.9393 35.0066H51.6268V41.3994H46.9393V35.0066ZM46.9393 49.1597H51.6268V55.5525H46.9393V49.1597ZM37.6562 17.733H42.3437V27.2772H37.6562V17.733ZM37.6562 35.046H42.3437V41.4389H37.6562V35.046ZM37.6562 49.1991H42.3437V55.5921H37.6562V49.1991ZM28.373 20.845H33.0605V27.2378H28.373V20.845ZM28.373 35.0066H33.0605V41.3994H28.373V35.0066ZM28.373 49.1597H33.0605V55.5525H28.373V49.1597Z" fill="#5F96F0"/>
<path d="M42.3438 65.7137H46.9394V79.9901H42.3438V65.7137Z" fill="#5F96F0"/>
</svg>
