<svg width="80" height="80" viewBox="0 0 80 80" fill="none" xmlns="http://www.w3.org/2000/svg">
<g clip-path="url(#clip0)">
<path d="M30.625 28.2812C29.3319 28.2812 28.2812 29.3319 28.2812 30.625C28.2812 31.9181 29.3319 32.9688 30.625 32.9688C31.9181 32.9688 32.9688 31.9181 32.9688 30.625C32.9688 29.3319 31.9181 28.2812 30.625 28.2812Z" fill="#5F96F0"/>
<path d="M30.625 56.4062C29.3319 56.4062 28.2812 57.4569 28.2812 58.75V65.7812H32.9688V58.75C32.9688 57.4569 31.9181 56.4062 30.625 56.4062Z" fill="#5F96F0"/>
<path d="M0 70.4688V77.6562C0 78.9506 1.04937 80 2.34375 80H77.6562C78.9506 80 80 78.9506 80 77.6562V70.4688H0Z" fill="#5F96F0"/>
<path d="M63.4375 56.4062H58.75V65.7812H63.4375V56.4062Z" fill="#5F96F0"/>
<path d="M79.0619 47.5003L62.4994 33.4378C61.6662 32.8106 60.5219 32.8106 59.6887 33.4378L43.2825 47.5003C42.4745 48.1045 42.145 49.1597 42.4654 50.1164C42.7834 51.0731 43.6783 51.7186 44.6876 51.7186H47.0314V65.7811H54.0626V54.0624C54.0626 52.7669 55.1109 51.7186 56.4064 51.7186H65.7814C67.0769 51.7186 68.1251 52.7669 68.1251 54.0624V65.7811H75.1564V51.7186H77.6564C78.6658 51.7186 79.5608 51.0731 79.8789 50.1164C80.1994 49.1597 79.8697 48.1045 79.0619 47.5003Z" fill="#5F96F0"/>
<path d="M51.0323 24.2805L32.2821 5.53048C31.3667 4.61501 29.8834 4.61501 28.9679 5.53048L10.2179 24.2805C9.30244 25.196 9.30229 26.6791 10.2179 27.5947C11.1334 28.5102 12.6167 28.5102 13.5321 27.5947L14.2188 26.908V65.7813H23.5938V58.75C23.5938 54.8728 26.7479 51.7188 30.6251 51.7188C34.5023 51.7188 37.6563 54.8728 37.6563 58.75V65.7813H42.3438V56.0058C40.3365 55.2986 38.716 53.6986 38.0179 51.5952C37.0543 48.725 38.0407 45.5664 40.4739 43.7469L47.0313 38.1206V26.908L47.7181 27.5947C48.6335 28.5102 50.1168 28.5102 51.0323 27.5947C51.9478 26.6792 51.9479 25.1961 51.0323 24.2805ZM30.6251 37.6563C26.7479 37.6563 23.5938 34.5022 23.5938 30.625C23.5938 26.7478 26.7479 23.5938 30.6251 23.5938C34.5023 23.5938 37.6563 26.7478 37.6563 30.625C37.6563 34.5022 34.5023 37.6563 30.6251 37.6563Z" fill="#5F96F0"/>
<path d="M1.60219 37.7776C0.645469 38.0959 0 38.9908 0 40.0001V47.0314H2.34375C3.63922 47.0314 4.6875 48.0797 4.6875 49.3751C4.6875 50.6706 3.63922 51.7189 2.34375 51.7189H0V56.4064H2.34375C3.63922 56.4064 4.6875 57.4547 4.6875 58.7501C4.6875 60.0456 3.63922 61.0939 2.34375 61.0939H0V65.7814H9.53125V35.1867L1.60219 37.7776Z" fill="#5F96F0"/>
<path d="M79.4166 15.6475C78.3056 11.0314 75.2378 0 70.4688 0C65.7073 0 62.8117 11.0078 61.7513 15.38C61.245 18.7548 61.0938 19.6066 61.0938 21.25C61.0938 26.7342 64 27.9531 68.125 28.1873V32.0964L72.8125 36.1108V28.1875C76.9375 27.9531 80 26.7344 80 21.2502C80 19.5023 79.7927 18.2817 79.4166 15.6475Z" fill="#5F96F0"/>
</g>
<defs>
<clipPath id="clip0">
<rect width="80" height="80" fill="white"/>
</clipPath>
</defs>
</svg>
