<svg width="40" height="40" viewBox="0 0 40 40" fill="none" xmlns="http://www.w3.org/2000/svg">
<g clip-path="url(#clip0)">
<path d="M36.6666 8.33333H28.3334V6.66661C28.3334 4.82825 26.8384 3.33325 25 3.33325H15C13.1616 3.33325 11.6666 4.82818 11.6666 6.66661V8.33326H3.33336C1.49492 8.33333 0 9.82826 0 11.6666V16.6666C0 18.5051 1.49492 20 3.33336 20H16.6667V19.1666C16.6667 18.706 17.0395 18.3333 17.5001 18.3333H22.5001C22.9607 18.3333 23.3334 18.706 23.3334 19.1666V20H36.6668C38.5051 20 40 18.5051 40 16.6666V11.6666C40 9.82826 38.5051 8.33333 36.6666 8.33333ZM25 8.33333H15V6.66661H25V8.33333Z" fill="#5F96F0"/>
<path d="M39.5377 20.8994C39.2537 20.7586 38.9144 20.7912 38.6637 20.9816C38.0713 21.43 37.3811 21.6668 36.6666 21.6668H23.3334V24.1668C23.3334 24.6275 22.9606 25.0002 22.5 25.0002H17.5C17.0394 25.0002 16.6666 24.6275 16.6666 24.1668V21.6668H3.33336C2.61883 21.6668 1.92875 21.43 1.33625 20.9816C1.08477 20.7896 0.74625 20.757 0.462187 20.8994C0.179062 21.0403 0 21.3291 0 21.6457V33.3336C0 35.1719 1.49492 36.6669 3.33336 36.6669H36.6667C38.5051 36.6669 40.0001 35.172 40.0001 33.3336V21.6457C40 21.3291 39.8209 21.0403 39.5377 20.8994Z" fill="#5F96F0"/>
</g>
<defs>
<clipPath id="clip0">
<rect width="40" height="40" fill="white"/>
</clipPath>
</defs>
</svg>
