<svg width="35" height="35" viewBox="0 0 35 35" fill="none" xmlns="http://www.w3.org/2000/svg">
<path d="M5.94506 24.3593L9.47882 18.9408H8.05528V15.6568L10.6581 10.8516H10.1655V7.54772L12.7749 2.93128L10.9702 0H8.5026L3.87546 8.18657V10.1326H4.91242L1.9377 15.6243V17.5605H3.97332L0 23.6531V25.6343H5.94506V24.3593Z" fill="#5F96F0"/>
<path d="M27.7941 29.8209V27.7335H23.6765V29.0065C22.644 28.8853 21.6021 28.8234 20.5556 28.8234H19.5588V25.6545L26.9961 25.6747V24.9712L21.7205 16.8819H24.8858V16.1785L20.8851 8.79259H22.7755V8.08916L18.2148 0.0201416H16.7852L12.2243 8.08929V8.79273H14.1147L10.114 16.1786V16.8821H13.2794L8.00375 24.9714V25.6748L15.4412 25.6546V28.8235H14.4444C13.3979 28.8235 12.356 28.8854 11.3235 29.0066V27.7336H7.20588V29.821C4.85587 30.4814 2.59631 31.4635 0.492608 32.7491L0 33.0501V35H35V33.0501L34.5073 32.749C32.4037 31.4635 30.1441 30.4813 27.7941 29.8209Z" fill="#5F96F0"/>
<path d="M31.0265 17.5605H33.0621V15.6243L30.0874 10.1326H31.1243V8.18657L26.4971 0H24.0112L22.269 3.00925L24.8343 7.54772V10.8516H24.3417L26.9445 15.6568V18.9408H25.521L29.0547 24.3593V25.6343H34.9998V23.6531L31.0265 17.5605Z" fill="#5F96F0"/>
</svg>
