<svg width="40" height="40" viewBox="0 0 40 40" fill="none" xmlns="http://www.w3.org/2000/svg">
<g clip-path="url(#clip0)">
<path d="M35.1382 36.7559L32.5297 25.4524C32.2389 24.2891 31.1979 23.4768 29.9989 23.4768H24.9305C24.2135 22.2996 23.2786 21.2673 22.1734 20.437V13.0427C22.1734 11.0768 20.0678 9.87451 18.3981 10.7093L13.1811 13.3178C12.2917 13.7623 11.748 14.6565 11.748 15.6512V18.9875C11.7318 18.9931 11.7154 18.9949 11.6994 19.0011C7.49838 20.642 4.78369 24.6172 4.78369 29.1286C4.78369 35.1218 9.65939 39.9975 15.6526 39.9975C21.6862 39.9975 26.7536 35.0014 26.5022 28.6939H27.9624L30.0767 38.022C30.4251 39.4128 31.8253 40.2757 33.2406 39.9198C34.6352 39.5712 35.4864 38.1519 35.1382 36.7559ZM15.6524 37.389C11.0977 37.389 7.39213 33.6834 7.39213 29.1287C7.39213 26.0375 9.0783 23.2907 11.7479 21.8633V25.2159C11.7479 26.6543 12.9093 27.8244 14.3478 27.8244C15.7862 27.8244 16.9563 26.6543 16.9563 25.2159V20.9466C17.0208 20.9694 17.0858 20.9915 17.1554 21.0043C21.0707 21.7234 23.9128 25.1404 23.9128 29.1288C23.9128 33.6834 20.2072 37.389 15.6524 37.389Z" fill="#5F96F0"/>
<path d="M20.0002 0C17.8426 0 16.0874 1.75516 16.0874 3.91281C16.0874 6.07047 17.8426 7.82562 20.0002 7.82562C22.1579 7.82562 23.913 6.07047 23.913 3.91281C23.913 1.75516 22.1578 0 20.0002 0Z" fill="#5F96F0"/>
</g>
<defs>
<clipPath id="clip0">
<rect width="40" height="40" fill="white"/>
</clipPath>
</defs>
</svg>
