<svg width="40" height="40" viewBox="0 0 40 40" fill="none" xmlns="http://www.w3.org/2000/svg">
<g clip-path="url(#clip0)">
<path d="M39.2783 14.1806C39.2086 13.9039 39.025 13.6703 38.7737 13.5354C38.5231 13.4013 38.2268 13.3786 37.958 13.473C35.6012 14.301 31.965 14.8338 27.8753 14.8338C26.8811 14.8338 25.9228 14.7958 24.9937 14.7361C24.5133 16.9065 23.7457 18.8994 22.7652 20.6546C22.8129 20.6527 22.8585 20.6449 22.9066 20.6449C24.1774 20.6449 25.2073 20.5389 25.2073 21.395C25.2073 22.251 24.1773 23.7452 22.9066 23.7452C22.1663 23.7452 21.5146 23.5057 21.094 23.1398C19.8239 24.7167 18.3401 25.96 16.7061 26.7823C18.5484 32.9836 22.8558 37.3339 27.8753 37.3339C34.5719 37.3339 40.0003 29.5921 40.0003 20.0421C40.0003 17.9821 39.743 16.0108 39.2783 14.1806ZM32.7074 32.2848C32.6859 32.3759 32.6181 32.4502 32.529 32.4795C32.4397 32.5093 32.3415 32.4906 32.2698 32.4299C31.3253 31.6363 29.7185 31.109 27.8754 31.109C26.0322 31.109 24.4254 31.6363 23.481 32.4299C23.4092 32.4899 23.3109 32.5087 23.2218 32.4795C23.1326 32.4496 23.0649 32.3759 23.0434 32.2848C22.9652 31.9521 22.9171 31.6091 22.9171 31.2522C22.9171 28.5138 25.1372 26.2939 27.8755 26.2939C30.6138 26.2939 32.8337 28.5139 32.8337 31.2522C32.8336 31.6091 32.7855 31.9522 32.7074 32.2848ZM32.844 23.7451C31.5732 23.7451 30.5433 22.2509 30.5433 21.3949C30.5433 20.5388 31.5733 20.6448 32.844 20.6448C34.1148 20.6448 35.1448 21.3389 35.1448 22.195C35.1448 23.051 34.1148 23.7451 32.844 23.7451Z" fill="#5F96F0"/>
<path d="M24.25 9.2921C24.25 7.23231 23.9928 5.26094 23.528 3.43082C23.4584 3.15415 23.2748 2.92033 23.0235 2.78559C22.875 2.70622 22.7103 2.66589 22.5442 2.66589C22.4309 2.66589 22.317 2.68458 22.2077 2.72321C19.851 3.5512 16.2148 4.08383 12.1251 4.08383C8.03527 4.08383 4.39913 3.5512 2.04238 2.72321C1.93367 2.68458 1.82039 2.66589 1.70712 2.66589C1.54119 2.66589 1.37567 2.70664 1.22656 2.78627C0.975921 2.92101 0.791726 3.15474 0.721987 3.43082C0.257231 5.26102 0 7.23231 0 9.2921C0 18.8423 5.42839 26.5839 12.1251 26.5839C18.8216 26.5839 24.25 18.8423 24.25 9.2921ZM4.85543 11.4412C4.85543 10.585 5.88545 9.89109 7.1563 9.89109C8.42707 9.89109 9.45709 11.3851 9.45709 12.2413C9.45709 13.0974 8.42707 12.9914 7.1563 12.9914C5.88545 12.9914 4.85543 12.2973 4.85543 11.4412ZM12.1251 23.3148C9.38668 23.3148 7.16679 21.0949 7.16679 18.3567C7.16679 17.9999 7.21488 17.6567 7.29299 17.324C7.31446 17.233 7.38226 17.1594 7.47135 17.1293C7.56062 17.1001 7.65885 17.1189 7.73053 17.1788C8.67509 17.9725 10.2819 18.4998 12.125 18.4998C13.9681 18.4998 15.5749 17.9725 16.5194 17.1788C16.5912 17.1182 16.6894 17.0995 16.7786 17.1293C16.8678 17.1587 16.9355 17.233 16.9569 17.324C17.035 17.6567 17.0832 17.9999 17.0832 18.3567C17.0833 21.0949 14.8633 23.3148 12.1251 23.3148ZM14.7929 12.2413C14.7929 11.3851 15.8229 9.89109 17.0938 9.89109C18.3646 9.89109 19.3946 10.585 19.3946 11.4412C19.3946 12.2973 18.3646 12.9914 17.0938 12.9914C15.8229 12.9914 14.7929 13.0974 14.7929 12.2413Z" fill="#5F96F0"/>
</g>
<defs>
<clipPath id="clip0">
<rect width="40" height="40" fill="white"/>
</clipPath>
</defs>
</svg>
