<svg width="40" height="40" viewBox="0 0 40 40" fill="none" xmlns="http://www.w3.org/2000/svg">
<path d="M29.0317 4.65125C30.3161 4.65125 31.3573 3.61003 31.3573 2.32562C31.3573 1.04122 30.3161 0 29.0317 0C27.7473 0 26.7061 1.04122 26.7061 2.32562C26.7061 3.61003 27.7473 4.65125 29.0317 4.65125Z" fill="#5F96F0"/>
<path d="M39.499 6.69187C39.6882 6.54366 39.568 6.63812 39.6161 6.59952C39.9412 6.33765 39.9796 5.87179 39.7355 5.56023C39.7345 5.55913 39.7334 5.55804 39.7325 5.55694C39.484 5.24327 39.0211 5.17741 38.6936 5.43023C38.6922 5.43124 38.6908 5.4321 38.6894 5.43319L38.58 5.5189L38.3598 5.23773C38.359 5.23679 38.3581 5.23601 38.3573 5.23507C38.1514 4.97562 37.777 4.93733 37.5232 5.13601C37.5231 5.13608 37.523 5.13608 37.523 5.13616C37.2638 5.33913 37.2183 5.71374 37.4213 5.97288L37.6416 6.25405L37.454 6.40108C37.2687 6.16452 37.3168 6.22585 37.2338 6.11991C37.2337 6.11976 37.2336 6.11968 37.2335 6.11944C37.0312 5.86179 36.656 5.81546 36.397 6.01819C36.1379 6.22116 36.0924 6.59585 36.2954 6.85499L36.5155 7.13648L33.0477 9.85335C33.0466 9.85241 33.0454 9.85148 33.0443 9.85046C31.6744 8.68694 29.913 8.8889 29.3323 10.2601C29.2061 10.5584 28.9823 10.8323 28.6756 11.0187L29.9534 11.9899C30.3834 11.6356 31.0055 11.7151 31.3379 12.1393C31.6692 12.5622 31.5949 13.1735 31.172 13.5048C30.9729 13.6609 30.7319 13.7259 30.498 13.7079C30.4566 14.0698 30.3252 14.4176 30.1093 14.7234C29.7691 15.2053 29.2505 15.5259 28.6776 15.6228L28.9049 15.913C29.1079 16.1721 29.0624 16.5467 28.8033 16.7498C28.5441 16.9527 28.1696 16.9073 27.9665 16.6481L26.6594 14.9798L24.3802 13.3704C24.093 14.8337 24.7907 16.416 25.8837 17.4309C27.1051 18.5623 28.989 19.0752 30.293 18.0537C30.9094 17.5707 31.2487 16.8423 31.3107 16.0283C31.3682 15.2727 31.937 14.6556 32.6826 14.5362C34.0957 14.3098 34.8046 12.7019 33.9668 11.0262L37.4346 8.30929L37.6548 8.59046C37.6549 8.59062 37.6551 8.59069 37.6553 8.59093C37.8694 8.86351 38.2782 8.90062 38.5368 8.65288C38.537 8.65265 38.5374 8.65234 38.5377 8.6521C38.753 8.44515 38.7855 8.10062 38.5933 7.8553L38.373 7.57413L38.5606 7.4271L38.7809 7.70827C38.9804 7.9628 39.3549 8.01585 39.6177 7.80991C39.8765 7.60718 39.9226 7.23257 39.7194 6.97312L39.499 6.69187Z" fill="#5F96F0"/>
<path d="M32.0494 5.39258C31.3931 5.39258 26.7022 5.39258 26.0133 5.39258C24.5563 5.39258 23.3651 6.57789 23.3579 8.03141C23.3506 8.93578 23.3436 9.81547 23.3365 10.7081V10.709C23.3333 11.1087 23.5213 11.4447 23.8112 11.6495L27.6658 14.3714C28.1707 14.728 28.8715 14.6093 29.2297 14.102C29.5872 13.5958 29.4665 12.8955 28.9604 12.5381C26.8728 11.0641 27.3175 11.378 25.5852 10.1548C25.5993 8.40719 25.5935 9.13219 25.6022 8.04602C25.6029 7.92312 25.7026 7.82414 25.8254 7.82445C25.9481 7.82477 26.0473 7.92445 26.0473 8.04711V9.16234L27.4205 10.132C27.5532 10.1448 27.7968 10.1803 27.8275 10.1803C28.0517 10.1803 28.2531 10.0468 28.3407 9.84008C28.543 9.36211 28.8477 8.96148 29.2463 8.64914C29.7768 8.23352 30.4308 8.01383 31.1376 8.01383C31.4223 8.01383 31.7086 8.04953 31.9911 8.1182V8.10117C31.9911 7.99398 32.0655 7.90109 32.17 7.87758C32.2745 7.85406 32.3815 7.90633 32.4275 8.00313C32.4633 8.07883 32.486 8.16844 32.4853 8.27398C32.6619 8.34258 32.8358 8.42367 33.0056 8.51789L34.5408 7.31516C34.1196 6.13234 33.1819 5.39258 32.0494 5.39258Z" fill="#5F96F0"/>
<path d="M10.6622 7.01672C12.0108 7.01672 13.1041 5.92342 13.1041 4.57477C13.1041 3.22611 12.0108 2.13281 10.6622 2.13281C9.31351 2.13281 8.22021 3.22611 8.22021 4.57477C8.22021 5.92342 9.31351 7.01672 10.6622 7.01672Z" fill="#5F96F0"/>
<path d="M21.1769 7.17442L19.9841 6.31504L20.2418 5.80551C20.5355 5.22473 20.3026 4.5159 19.7219 4.22223C19.1411 3.92856 18.4323 4.16137 18.1387 4.74215L18.0485 4.92051L17.3134 4.3909C17.3844 3.91824 17.1958 3.42356 16.7814 3.12496C16.1908 2.69942 15.367 2.83332 14.9415 3.42395C14.5159 4.01457 14.6497 4.8384 15.2405 5.26387C15.6549 5.56246 16.1837 5.58465 16.6097 5.36785L17.4987 6.00832L16.679 7.62989L13.5479 7.3477C13.5479 7.3477 9.53412 8.01496 9.45022 8.04293L6.59092 5.57754L5.24936 0.867228C5.07115 0.24129 4.41928 -0.121679 3.79342 0.0566028C3.16756 0.234884 2.80459 0.886603 2.98287 1.51246L4.42061 6.56231C4.48373 6.78379 4.61014 6.98176 4.78436 7.13199L8.40803 10.2565L9.82397 19.1508C11.4709 19.5945 12.7138 20.9801 12.9747 22.6625L12.9801 22.6554C13.0431 22.0597 13.0909 22.8203 12.5119 17.7687L13.0923 17.6747L13.4588 18.13L13.5142 17.6064L13.6246 16.5629C13.7356 15.5136 14.4553 14.6769 15.3958 14.3652L14.6728 9.89911C14.7145 9.9009 17.3454 10.0193 17.3869 10.0193C17.8296 10.0193 18.237 9.77051 18.4382 9.37278L19.4341 7.40293L20.473 8.15137C20.7424 8.34551 21.1189 8.28481 21.3134 8.01489C21.5077 7.74504 21.4466 7.36887 21.1769 7.17442Z" fill="#5F96F0"/>
<path d="M36.2179 22.4238L36.0581 23.9343C36.0075 24.4123 35.8257 24.8668 35.5327 25.2478L35.5 25.2903H39.9307V22.4237H36.2179V22.4238Z" fill="#5F96F0"/>
<path d="M16.3548 15.4973C15.6148 15.419 14.952 15.9554 14.8738 16.6951L14.1922 23.1404L10.8585 27.474C8.77603 27.474 8.444 27.474 6.36439 27.474L3.23822 22.6198L2.75853 16.7273C2.69822 15.9861 2.049 15.4361 1.30689 15.4943C0.565562 15.5547 0.0135306 16.2047 0.0738431 16.946L0.580953 23.1747C0.598921 23.3955 0.671109 23.6083 0.790953 23.7945C4.87916 30.1427 4.58978 29.742 4.81877 29.9305V39.9996H12.5484C12.5484 37.9928 12.5484 31.8539 12.5484 29.6947L16.5588 24.4812C16.7104 24.2841 16.8045 24.049 16.8306 23.8017L17.5523 16.9782C17.6307 16.2386 17.0945 15.5756 16.3548 15.4973Z" fill="#5F96F0"/>
<path d="M34.3321 15.4973C33.5917 15.419 32.9293 15.9554 32.8511 16.6951L32.1695 23.1404L28.8358 27.474C28.3265 27.474 24.2267 27.474 23.6022 27.474L20.6518 24.6535L23.6095 19.5537C23.9826 18.9102 23.7636 18.0862 23.1201 17.713C22.4768 17.3398 21.6527 17.5591 21.2795 18.2024C20.8055 19.0196 18.2762 23.3809 17.7902 24.219C17.6244 24.505 17.5752 24.8315 17.632 25.1391C17.7367 25.7059 18.6686 26.472 22.7961 30.4106C22.7961 32.0268 22.7961 39.674 22.7961 39.9995H30.5257C30.5257 37.9927 30.5257 31.8538 30.5257 29.6947L34.5361 24.4813C34.6877 24.2841 34.7818 24.049 34.808 23.8017L35.5296 16.9782C35.608 16.2386 35.0718 15.5756 34.3321 15.4973Z" fill="#5F96F0"/>
<path d="M8.69916 26.3945C10.3924 26.3945 11.765 25.0219 11.765 23.3287C11.765 21.6355 10.3924 20.2628 8.69916 20.2628C7.00593 20.2628 5.6333 21.6355 5.6333 23.3287C5.6333 25.0219 7.00593 26.3945 8.69916 26.3945Z" fill="#5F96F0"/>
<path d="M26.6772 26.4808C28.3704 26.4808 29.743 25.1082 29.743 23.415C29.743 21.7218 28.3704 20.3491 26.6772 20.3491C24.984 20.3491 23.6113 21.7218 23.6113 23.415C23.6113 25.1082 24.984 26.4808 26.6772 26.4808Z" fill="#5F96F0"/>
</svg>
