<svg width="44" height="44" viewBox="0 0 44 44" fill="none" xmlns="http://www.w3.org/2000/svg">
<path d="M24.7203 21.0387C27.8327 20.6479 30.9017 21.9005 32.8699 24.325C33.0143 24.503 33.2722 24.5419 33.4573 24.4068C34.3489 23.7553 35.1165 22.9414 35.7184 22.0018C39.4694 16.1494 35.304 8.25 28.1877 8.25C23.5439 8.25 19.7165 11.8088 19.2905 16.3425C19.2733 16.5256 19.3744 16.7005 19.5427 16.7748C21.4853 17.634 23.1449 19.0497 24.3108 20.8495C24.3991 20.986 24.559 21.0589 24.7203 21.0387Z" fill="#5F96F0"/>
<path d="M28.1875 6.875C28.9469 6.875 29.5625 6.25934 29.5625 5.5V2.75C29.5625 1.99066 28.9469 1.375 28.1875 1.375C27.4281 1.375 26.8125 1.99066 26.8125 2.75V5.5C26.8125 6.25934 27.4281 6.875 28.1875 6.875Z" fill="#5F96F0"/>
<path d="M42.625 15.8125H39.875C39.1156 15.8125 38.5 16.4282 38.5 17.1875C38.5 17.9468 39.1156 18.5625 39.875 18.5625H42.625C43.3844 18.5625 44 17.9468 44 17.1875C44 16.4282 43.3844 15.8125 42.625 15.8125Z" fill="#5F96F0"/>
<path d="M37.4244 24.4796C36.8876 23.9427 36.0169 23.9427 35.4799 24.4796C34.9429 25.0166 34.9429 25.8872 35.4799 26.4241L37.4244 28.3686C37.6929 28.6372 38.0447 28.7714 38.3966 28.7714C39.6107 28.7714 40.2375 27.2927 39.3688 26.4242L37.4244 24.4796Z" fill="#5F96F0"/>
<path d="M18.9508 9.89536C19.4877 10.4324 20.3583 10.4324 20.8953 9.89536C21.4323 9.35833 21.4323 8.48779 20.8953 7.95085L18.9508 6.00634C18.414 5.4694 17.5434 5.4694 17.0063 6.00634C16.4693 6.54336 16.4693 7.41391 17.0063 7.95085L18.9508 9.89536Z" fill="#5F96F0"/>
<path d="M36.4517 10.2982C36.8036 10.2982 37.1555 10.1639 37.4239 9.89539L39.3685 7.95088C39.9055 7.41386 39.9055 6.54331 39.3685 6.00637C38.8315 5.46944 37.9609 5.46935 37.4239 6.00637L35.4795 7.95096C34.6107 8.81971 35.2378 10.2982 36.4517 10.2982Z" fill="#5F96F0"/>
<path d="M32.0143 31.2813C33.0743 26.0585 27.6048 22.0319 22.9664 24.412C21.9469 21.0476 18.8222 18.5984 15.125 18.5984C10.3268 18.5984 6.53864 22.7078 6.96523 27.5235C3.0678 27.828 0 31.0869 0 35.0626C0 39.2276 3.37434 42.6251 7.5625 42.6251H32.1406C35.2731 42.6251 37.8125 40.0857 37.8125 36.9532C37.8125 33.9593 35.4567 31.2813 32.0143 31.2813Z" fill="#5F96F0"/>
</svg>
