<svg width="39" height="39" viewBox="0 0 39 39" fill="none" xmlns="http://www.w3.org/2000/svg">
<path d="M36.4375 5.45834C36.3675 4.9555 36.0057 4.54188 35.5166 4.40593L19.8418 0.0467691C19.6184 -0.0154269 19.3823 -0.0154269 19.1587 0.0467691L3.48391 4.40593C2.99484 4.54188 2.63305 4.95533 2.56304 5.45834C2.47212 6.11208 0.398069 21.5585 5.71787 29.2426C11.0314 36.9175 18.87 38.8843 19.201 38.9643C19.2994 38.9881 19.3997 38.9999 19.5003 38.9999C19.6009 38.9999 19.7011 38.988 19.7995 38.9643C20.1307 38.8843 27.9693 36.9175 33.2826 29.2426C38.6024 21.5586 36.5284 6.11225 36.4375 5.45834ZM29.6085 14.4761L18.9167 25.1679C18.6679 25.4166 18.3416 25.5412 18.0155 25.5412C17.6894 25.5412 17.3632 25.4168 17.1144 25.1679L10.5037 18.5572C10.2646 18.3183 10.1304 17.9941 10.1304 17.6561C10.1304 17.3181 10.2648 16.9938 10.5037 16.7549L11.8163 15.4423C12.3141 14.9448 13.1211 14.9446 13.6186 15.4423L18.0155 19.8392L26.4936 11.361C26.7325 11.1219 27.0567 10.9877 27.3947 10.9877C27.7327 10.9877 28.057 11.1219 28.2959 11.361L29.6085 12.6736C30.1062 13.1713 30.1062 13.9783 29.6085 14.4761Z" fill="#5F96F0"/>
</svg>
