<svg width="107" height="107" viewBox="0 0 107 107" fill="none" xmlns="http://www.w3.org/2000/svg">
<g clip-path="url(#clip0)">
<path d="M103.865 90.0721H98.4314V62.9042H85.9384C83.0578 62.9042 80.3458 61.5711 78.578 59.3523C76.8102 61.5711 74.0982 62.9042 71.2176 62.9042H35.7822C32.9016 62.9042 30.1896 61.5711 28.4218 59.3523C26.654 61.5711 23.9422 62.9042 21.0614 62.9042H8.56834V90.0721H3.13476C1.40354 90.0721 0 91.4757 0 93.2069V103.865C0 105.596 1.40354 107 3.13476 107H103.865C105.596 107 107 105.596 107 103.865V93.2069C107 91.4757 105.596 90.0721 103.865 90.0721ZM34.6913 84.8475C34.6913 86.5787 33.2878 87.9823 31.5566 87.9823H19.0175C17.2863 87.9823 15.8828 86.5787 15.8828 84.8475V72.3085C15.8828 70.5772 17.2863 69.1737 19.0175 69.1737H31.5566C33.2878 69.1737 34.6913 70.5772 34.6913 72.3085V84.8475ZM64.994 90.0721H42.0058V78.578C42.0058 72.2401 47.162 67.0839 53.4999 67.0839C59.8378 67.0839 64.994 72.2401 64.994 78.578V90.0721ZM91.117 84.8475C91.117 86.5787 89.7135 87.9823 87.9823 87.9823H75.4432C73.712 87.9823 72.3085 86.5787 72.3085 84.8475V72.3085C72.3085 70.5772 73.712 69.1737 75.4432 69.1737H87.9823C89.7135 69.1737 91.117 70.5772 91.117 72.3085V84.8475Z" fill="#5F96F0"/>
<path d="M106.874 52.6201L95.8756 15.003C95.4846 13.6665 94.2591 12.748 92.8666 12.748H85.0042V6.26952C86.7354 6.26952 88.139 4.86598 88.139 3.13476C88.139 1.40354 86.7354 0 85.0042 0C83.1006 0 69.2612 0 66.1957 0C64.4644 0 63.0609 1.40354 63.0609 3.13476C63.0609 4.86598 64.4644 6.26952 66.1957 6.26952V12.748H14.134C12.7415 12.748 11.5161 13.6665 11.1253 15.0032L0.126424 52.6203C-0.15048 53.5676 0.0348888 54.5902 0.62694 55.3801C1.21899 56.1701 2.14834 56.6347 3.13517 56.6347H21.0618C22.1818 56.6347 23.2166 56.0372 23.7765 55.0673L28.4222 47.0212L33.0679 55.0673C33.628 56.0372 34.6627 56.6347 35.7826 56.6347H71.218C72.3379 56.6347 73.3728 56.0372 73.9327 55.0673L78.5784 47.0212L83.2239 55.0673C83.784 56.0372 84.8186 56.6347 85.9386 56.6347H103.865C104.852 56.6347 105.782 56.1697 106.374 55.3799C106.966 54.5902 107.151 53.5676 106.874 52.6201ZM78.7347 12.748H72.4652V6.26952H78.7347V12.748Z" fill="#5F96F0"/>
</g>
<defs>
<clipPath id="clip0">
<rect width="107" height="107" fill="white"/>
</clipPath>
</defs>
</svg>
