<svg width="21" height="21" viewBox="0 0 21 21" fill="none" xmlns="http://www.w3.org/2000/svg">
<g clip-path="url(#clip0)">
<path d="M1.48572 1.48571L4.45713 1.48571V4.45711H1.48572L1.48572 1.48571Z" fill="#5F96F0"/>
<path d="M0 8.91427H1.4857L1.4857 19.3143H4.45711L4.45711 8.91427H5.94282V5.94287H0L0 8.91427Z" fill="#5F96F0"/>
<path d="M8.91431 1.48571L11.8857 1.48571V10.4H8.91431V1.48571Z" fill="#5F96F0"/>
<path d="M7.42859 14.8571H8.91429V19.3143H11.8857V14.8571H13.3715V11.8857H7.42859V14.8571Z" fill="#5F96F0"/>
<path d="M16.3429 1.48571L19.3143 1.48571V7.42857H16.3429V1.48571Z" fill="#5F96F0"/>
<path d="M20.8 8.91428H14.8572V11.8857H16.3429V19.3143H19.3143V11.8857H20.8V8.91428H20.8Z" fill="#5F96F0"/>
</g>
<defs>
<clipPath id="clip0">
<rect width="20.8" height="20.8" fill="white"/>
</clipPath>
</defs>
</svg>
