<svg width="25" height="24" viewBox="0 0 25 24" fill="none" xmlns="http://www.w3.org/2000/svg">
<g clip-path="url(#clip0)">
<path d="M23.9956 8.76333C23.8783 8.62014 23.7031 8.53657 23.5194 8.53657H21.1836C20.6072 7.01625 19.8562 5.52666 19.0027 4.96438C16.0499 3.02188 8.21788 3.02188 5.26512 4.96438C4.41094 5.52727 3.66308 7.01871 3.08358 8.53657H0.747802C0.562218 8.53657 0.387695 8.62014 0.271551 8.76333C0.154792 8.90589 0.108089 9.09455 0.146189 9.27583L0.492163 10.9522C0.551156 11.238 0.803109 11.442 1.09378 11.442H1.78572C1.11774 12.2126 0.793891 13.1829 0.789589 14.1539C0.785288 15.3534 1.24065 16.4374 2.07332 17.2043C2.08254 17.2123 2.09175 17.2179 2.10036 17.2259V19.5715C2.10036 20.0797 2.51331 20.4932 3.02213 20.4932H5.17663C5.68545 20.4932 6.09841 20.0797 6.09841 19.5715V18.6288H18.1682V19.5715C18.1682 20.0797 18.5811 20.4932 19.0899 20.4932H21.2444C21.752 20.4932 22.1662 20.0797 22.1662 19.5715V17.2719C23.0499 16.4626 23.4721 15.3491 23.4776 14.2375C23.4813 13.2333 23.1427 12.2274 22.4354 11.4408H23.1734C23.4653 11.4408 23.7173 11.2368 23.775 10.9504L24.1216 9.27461C24.1572 9.09455 24.1124 8.90712 23.9956 8.76333ZM6.27723 6.50374C8.63084 4.95454 15.6357 4.95454 17.9881 6.50374C18.4453 6.80363 19.0334 8.01607 19.5723 9.50075H4.69424C5.23194 8.01669 5.82003 6.80486 6.27723 6.50374ZM3.52051 14.3849C3.52051 13.3833 4.3329 12.5721 5.33395 12.5721C6.33623 12.5721 7.14739 13.3833 7.14739 14.3849C7.14739 15.3866 6.33623 16.1984 5.33395 16.1984C4.3329 16.1984 3.52051 15.3866 3.52051 14.3849ZM18.9566 16.1984C17.9555 16.1984 17.1431 15.3866 17.1431 14.3849C17.1431 13.3833 17.9555 12.5721 18.9566 12.5721C19.9589 12.5721 20.77 13.3833 20.77 14.3849C20.77 15.3866 19.9576 16.1984 18.9566 16.1984Z" fill="#5F96F0"/>
</g>
<defs>
<clipPath id="clip0">
<rect width="24" height="24" fill="white" transform="translate(0.133301)"/>
</clipPath>
</defs>
</svg>
