<svg width="24" height="24" viewBox="0 0 24 24" fill="none" xmlns="http://www.w3.org/2000/svg">
<g clip-path="url(#clip0)">
<path d="M6.24953 18.5312C4.6486 18.5312 3.22456 17.5061 2.70745 15.9801L2.67248 15.8651C2.55053 15.461 2.49944 15.1211 2.49944 14.7811V7.9628L0.0734183 16.061C-0.238601 17.2521 0.472415 18.487 1.66538 18.8161L17.1288 22.9573C17.3218 23.0073 17.5148 23.0313 17.7049 23.0313C18.7008 23.0313 19.6109 22.3703 19.866 21.3961L20.7669 18.5312H6.24953Z" fill="#5F96F0"/>
<path d="M8.99974 8.03091C10.1028 8.03091 10.9997 7.13385 10.9997 6.0308C10.9997 4.92775 10.1028 4.03069 8.99974 4.03069C7.89669 4.03069 6.99963 4.92775 6.99963 6.0308C6.99963 7.13385 7.89669 8.03091 8.99974 8.03091Z" fill="#5F96F0"/>
<path d="M21.4999 1.03062H6.49951C5.12161 1.03062 3.99951 2.15272 3.99951 3.53081V14.531C3.99951 15.909 5.12161 17.0311 6.49951 17.0311H21.4999C22.878 17.0311 24.0001 15.909 24.0001 14.531V3.53081C24.0001 2.15272 22.878 1.03062 21.4999 1.03062ZM6.49951 3.03073H21.4999C21.776 3.03073 22 3.25468 22 3.53081V10.63L18.8409 6.94379C18.5059 6.55084 18.0208 6.34081 17.4998 6.32891C16.9818 6.33184 16.4959 6.56183 16.1639 6.95991L12.4497 11.4179L11.2397 10.2108C10.5558 9.52693 9.44264 9.52693 8.75964 10.2108L5.99962 12.9699V3.53081C5.99962 3.25468 6.22357 3.03073 6.49951 3.03073Z" fill="#5F96F0"/>
</g>
<defs>
<clipPath id="clip0">
<rect width="24" height="24" fill="white"/>
</clipPath>
</defs>
</svg>
