<svg width="24" height="24" viewBox="0 0 24 24" fill="none" xmlns="http://www.w3.org/2000/svg">
<path d="M11.9998 5.98883C8.68519 5.98883 5.98865 8.68591 5.98865 12.0005C5.98865 15.3151 8.68519 18.0122 11.9998 18.0122C15.3139 18.0122 18.011 15.3157 18.011 12.0005C18.011 8.68538 15.3139 5.98883 11.9998 5.98883Z" fill="#5F96F0"/>
<path d="M11.9998 4.22179C11.352 4.22179 10.8269 3.69672 10.8269 3.04942V1.1729C10.8269 0.525066 11.352 0 11.9998 0C12.6476 0 13.1727 0.525066 13.1727 1.1729V3.04942C13.1727 3.69672 12.6471 4.22179 11.9998 4.22179Z" fill="#5F96F0"/>
<path d="M11.9998 19.7777C11.352 19.7777 10.8269 20.3027 10.8269 20.9506V22.8266C10.8269 23.4749 11.352 24 11.9998 24C12.6476 24 13.1727 23.4749 13.1727 22.8266V20.9506C13.1727 20.3027 12.6471 19.7777 11.9998 19.7777Z" fill="#5F96F0"/>
<path d="M17.4994 6.50009C17.0419 6.04199 17.0419 5.29956 17.4994 4.84145L18.8264 3.51444C19.284 3.05687 20.027 3.05687 20.4851 3.51444C20.9432 3.97254 20.9432 4.7155 20.4851 5.17308L19.1581 6.50009C18.7005 6.95819 17.9581 6.95819 17.4994 6.50009Z" fill="#5F96F0"/>
<path d="M6.50005 17.5004C6.04195 17.0418 5.29952 17.0418 4.84141 17.5004L3.5144 18.8269C3.05683 19.2845 3.0563 20.028 3.5144 20.4856C3.9725 20.9431 4.71546 20.9431 5.17304 20.4856L6.50005 19.158C6.95815 18.7004 6.95815 17.9575 6.50005 17.5004Z" fill="#5F96F0"/>
<path d="M19.7776 12C19.7776 11.3522 20.3027 10.8271 20.9505 10.8271H22.827C23.4748 10.8271 23.9999 11.3522 23.9999 12C23.9999 12.6478 23.4748 13.1724 22.827 13.1724H20.9505C20.3027 13.1724 19.7776 12.6478 19.7776 12Z" fill="#5F96F0"/>
<path d="M4.22179 12C4.22179 11.3522 3.69672 10.8271 3.04889 10.8271H1.1729C0.525066 10.8271 0 11.3522 0 12C0 12.6478 0.525066 13.1724 1.1729 13.1724H3.04942C3.69672 13.1724 4.22179 12.6478 4.22179 12Z" fill="#5F96F0"/>
<path d="M17.4993 17.5004C17.9574 17.0429 18.7004 17.0429 19.158 17.5004L20.485 18.8274C20.9431 19.2845 20.9431 20.028 20.485 20.4856C20.0269 20.9431 19.2845 20.9431 18.8264 20.4856L17.4993 19.1585C17.0412 18.7004 17.0412 17.958 17.4993 17.5004Z" fill="#5F96F0"/>
<path d="M6.50001 6.50008C6.95811 6.04197 6.95811 5.29955 6.50001 4.84144L5.17299 3.51496C4.71489 3.05685 3.97246 3.05685 3.51435 3.51496C3.05625 3.97253 3.05625 4.71549 3.51435 5.17306L4.84137 6.50008C5.29947 6.95871 6.0419 6.95871 6.50001 6.50008Z" fill="#5F96F0"/>
</svg>
