<svg width="20" height="20" viewBox="0 0 20 20" fill="none" xmlns="http://www.w3.org/2000/svg">
<g clip-path="url(#clip0)">
<path d="M9.86667 19.7333C15.3158 19.7333 19.7333 15.3159 19.7333 9.86667C19.7333 4.41744 15.3158 0 9.86667 0C4.41744 0 0 4.41744 0 9.86667C0 15.3159 4.41744 19.7333 9.86667 19.7333ZM7.90207 7.90207L14.9087 4.82449L11.8313 11.8312L4.82457 14.9088L7.90207 7.90207Z" fill="#5F96F0"/>
<path d="M9.86661 10.8859C10.4917 10.8859 10.9985 10.3792 10.9985 9.75406C10.9985 9.12894 10.4917 8.62219 9.86661 8.62219C9.24149 8.62219 8.73474 9.12894 8.73474 9.75406C8.73474 10.3792 9.24149 10.8859 9.86661 10.8859Z" fill="#5F96F0"/>
</g>
<defs>
<clipPath id="clip0">
<rect width="19.7333" height="19.7333" fill="white"/>
</clipPath>
</defs>
</svg>
