<svg width="19" height="14" viewBox="0 0 19 14" fill="none" xmlns="http://www.w3.org/2000/svg">
<path d="M16.5396 0H5.84375C4.96471 0 4.25 0.715062 4.25 1.59375C4.25 2.47279 4.96471 3.1875 5.84375 3.1875H16.5396C17.4183 3.1875 18.1333 2.47279 18.1333 1.59375C18.1333 0.715062 17.4183 0 16.5396 0Z" fill="#5F96F0"/>
<path d="M16.5396 5.31249H5.84375C4.96471 5.31249 4.25 6.02755 4.25 6.90624C4.25 7.78528 4.96471 8.49999 5.84375 8.49999H16.5396C17.4183 8.49999 18.1333 7.78528 18.1333 6.90624C18.1333 6.02755 17.4183 5.31249 16.5396 5.31249Z" fill="#5F96F0"/>
<path d="M16.5396 10.625H5.84375C4.96471 10.625 4.25 11.3401 4.25 12.2188C4.25 13.0978 4.96471 13.8125 5.84375 13.8125H16.5396C17.4183 13.8125 18.1333 13.0978 18.1333 12.2188C18.1333 11.3401 17.4183 10.625 16.5396 10.625Z" fill="#5F96F0"/>
<path d="M1.59375 0C0.714708 0 0 0.715062 0 1.59375C0 2.47279 0.714708 3.1875 1.59375 3.1875C2.47244 3.1875 3.1875 2.47279 3.1875 1.59375C3.1875 0.715062 2.47244 0 1.59375 0Z" fill="#5F96F0"/>
<path d="M1.59375 5.31249C0.714708 5.31249 0 6.02755 0 6.90624C0 7.78528 0.714708 8.49999 1.59375 8.49999C2.47244 8.49999 3.1875 7.78528 3.1875 6.90624C3.1875 6.02755 2.47244 5.31249 1.59375 5.31249Z" fill="#5F96F0"/>
<path d="M1.59375 10.625C0.714708 10.625 0 11.3401 0 12.2188C0 13.0978 0.714708 13.8125 1.59375 13.8125C2.47244 13.8125 3.1875 13.0978 3.1875 12.2188C3.1875 11.3401 2.47244 10.625 1.59375 10.625Z" fill="#5F96F0"/>
</svg>
