<svg width="18" height="18" viewBox="0 0 18 18" fill="none" xmlns="http://www.w3.org/2000/svg">
<g clip-path="url(#clip0)">
<path d="M8.53332 0C5.12515 0 2.35242 2.77273 2.35242 6.18087C2.35242 10.4105 7.88372 16.6198 8.11922 16.882C8.34042 17.1284 8.72662 17.128 8.94742 16.882C9.18292 16.6198 14.7142 10.4105 14.7142 6.18087C14.7142 2.77273 11.9415 0 8.53332 0ZM8.53332 9.29063C6.81858 9.29063 5.42358 7.8956 5.42358 6.18087C5.42358 4.46613 6.81862 3.07113 8.53332 3.07113C10.248 3.07113 11.643 4.46617 11.643 6.1809C11.643 7.89563 10.248 9.29063 8.53332 9.29063Z" fill="#5F96F0"/>
</g>
<defs>
<clipPath id="clip0">
<rect width="17.0667" height="17.0667" fill="white"/>
</clipPath>
</defs>
</svg>
